SplineFontDB: 3.0
FontName: TamzenCode7x14
FullName: Tamzen Code 7x14
FamilyName: TamzenCode7x14
Weight: Regular
Copyright: (c) 2015 Scott Fial
Version: 1.11
ItalicAngle: 0
UnderlinePosition: -15
UnderlineWidth: 10
Ascent: 100
Descent: 30
InvalidEm: 0
sfntRevision: 0x00011c29
LayerCount: 2
Layer: 0 1 "Back" 1
Layer: 1 1 "Fore" 0
XUID: [1021 264 -769995593 25219]
StyleMap: 0x0020
FSType: 0
OS2Version: 3
OS2_WeightWidthSlopeOnly: 0
OS2_UseTypoMetrics: 0
CreationTime: 1539872854
ModificationTime: 1564380173
PfmFamily: 49
TTFWeight: 400
TTFWidth: 5
LineGap: 0
VLineGap: 0
Panose: 0 0 0 0 0 0 0 0 0 0
OS2TypoAscent: 100
OS2TypoAOffset: 0
OS2TypoDescent: -30
OS2TypoDOffset: 0
OS2TypoLinegap: 0
OS2WinAscent: 100
OS2WinAOffset: 0
OS2WinDescent: 30
OS2WinDOffset: 0
HheadAscent: 100
HheadAOffset: 0
HheadDescent: -30
HheadDOffset: 0
OS2SubXSize: 140
OS2SubYSize: 140
OS2SubXOff: 0
OS2SubYOff: 70
OS2SupXSize: 140
OS2SupYSize: 140
OS2SupXOff: 0
OS2SupYOff: 70
OS2StrikeYSize: 10
OS2StrikeYPos: 55
OS2CapHeight: 80
OS2XHeight: 60
OS2Vendor: 'KBnP'
OS2CodePages: 00000000.00000000
OS2UnicodeRanges: 00000003.00000000.00000000.00000000
MarkAttachClasses: 1
DEI: 91125
ShortTable: maxp 16
  1
  0
  191
  132
  33
  0
  0
  2
  0
  0
  0
  0
  0
  0
  0
  0
EndShort
LangName: 1033 "" "" "" "" "" "1.11" "" "" "Misc" "" "" "http://www.kreativekorp.com/software/bitsnpicas/"
Encoding: UnicodeBmp
UnicodeInterp: none
NameList: AGL For New Fonts
DisplaySize: -48
AntiAlias: 1
FitToEm: 0
WinInfo: 60 30 16
BeginPrivate: 0
EndPrivate
TeXData: 1 0 0 524288 262144 174762 449390 1048576 174762 783286 444596 497025 792723 393216 433062 380633 303038 157286 324010 404750 52429 2506097 1059062 262144
BeginChars: 65537 191

StartChar: .null
Encoding: 0 -1 1
AltUni2: 000000.ffffffff.0
Width: 70
VWidth: 140
Flags: W
LayerCount: 2
Fore
SplineSet
10 0 m 1,0,-1
 10 80 l 1,1,-1
 70 80 l 1,2,-1
 70 0 l 1,3,-1
 10 0 l 1,0,-1
50 10 m 1,4,-1
 50 70 l 1,5,-1
 30 70 l 1,6,-1
 30 10 l 1,7,-1
 50 10 l 1,4,-1
EndSplineSet
EndChar

StartChar: nonmarkingreturn
Encoding: 13 13 2
Width: 70
VWidth: 140
Flags: W
LayerCount: 2
Fore
SplineSet
40 30 m 1,0,-1
 40 -30 l 1,1,-1
 20 -30 l 1,2,-1
 20 40 l 1,3,-1
 70 40 l 1,4,-1
 70 30 l 1,5,-1
 40 30 l 1,0,-1
EndSplineSet
EndChar

StartChar: uni0002
Encoding: 2 2 4
Width: 70
VWidth: 140
Flags: W
LayerCount: 2
Fore
SplineSet
0 10 m 1,0,-1
 0 20 l 1,1,-1
 10 20 l 1,2,-1
 10 10 l 1,3,-1
 0 10 l 1,0,-1
0 -20 m 1,4,-1
 0 -10 l 1,5,-1
 10 -10 l 1,6,-1
 10 -20 l 1,7,-1
 0 -20 l 1,4,-1
0 40 m 1,8,-1
 0 50 l 1,9,-1
 10 50 l 1,10,-1
 10 40 l 1,11,-1
 0 40 l 1,8,-1
0 70 m 1,12,-1
 0 80 l 1,13,-1
 10 80 l 1,14,-1
 10 70 l 1,15,-1
 0 70 l 1,12,-1
30 100 m 1025,16,-1
30 10 m 1,17,-1
 30 20 l 1,18,-1
 40 20 l 1,19,-1
 40 10 l 1,20,-1
 30 10 l 1,17,-1
30 0 m 1,21,-1
 20 0 l 1,22,-1
 20 10 l 1,23,-1
 30 10 l 1,24,-1
 30 0 l 1,21,-1
30 -20 m 1,25,-1
 30 -10 l 1,26,-1
 40 -10 l 1,27,-1
 40 -20 l 1,28,-1
 30 -20 l 1,25,-1
30 40 m 1,29,-1
 30 50 l 1,30,-1
 40 50 l 1,31,-1
 40 40 l 1,32,-1
 30 40 l 1,29,-1
30 30 m 1,33,-1
 20 30 l 1,34,-1
 20 40 l 1,35,-1
 30 40 l 1,36,-1
 30 30 l 1,33,-1
30 -30 m 1,37,-1
 20 -30 l 1,38,-1
 20 -20 l 1,39,-1
 30 -20 l 1,40,-1
 30 -30 l 1,37,-1
30 70 m 1,41,-1
 30 60 l 1,42,-1
 20 60 l 1,43,-1
 20 70 l 1,44,-1
 30 70 l 1,41,-1
30 100 m 1,45,-1
 30 90 l 1,46,-1
 20 90 l 1,47,-1
 20 100 l 1,48,-1
 30 100 l 1,45,-1
30 80 m 1,49,-1
 40 80 l 1,50,-1
 40 70 l 1,51,-1
 30 70 l 1,52,-1
 30 80 l 1,49,-1
60 10 m 1,53,-1
 60 20 l 1,54,-1
 70 20 l 1,55,-1
 70 10 l 1,56,-1
 60 10 l 1,53,-1
60 0 m 1,57,-1
 50 0 l 1,58,-1
 50 10 l 1,59,-1
 60 10 l 1,60,-1
 60 0 l 1,57,-1
60 -20 m 1,61,-1
 60 -10 l 1,62,-1
 70 -10 l 1,63,-1
 70 -20 l 1,64,-1
 60 -20 l 1,61,-1
60 40 m 1,65,-1
 60 50 l 1,66,-1
 70 50 l 1,67,-1
 70 40 l 1,68,-1
 60 40 l 1,65,-1
60 30 m 1,69,-1
 50 30 l 1,70,-1
 50 40 l 1,71,-1
 60 40 l 1,72,-1
 60 30 l 1,69,-1
60 -30 m 1,73,-1
 50 -30 l 1,74,-1
 50 -20 l 1,75,-1
 60 -20 l 1,76,-1
 60 -30 l 1,73,-1
60 70 m 1,77,-1
 60 60 l 1,78,-1
 50 60 l 1,79,-1
 50 70 l 1,80,-1
 60 70 l 1,77,-1
60 100 m 1,81,-1
 60 90 l 1,82,-1
 50 90 l 1,83,-1
 50 100 l 1,84,-1
 60 100 l 1,81,-1
60 80 m 1,85,-1
 70 80 l 1,86,-1
 70 70 l 1,87,-1
 60 70 l 1,88,-1
 60 80 l 1,85,-1
60 100 m 1025,89,-1
10 20 m 1,90,-1
 10 30 l 1,91,-1
 20 30 l 1,92,-1
 20 20 l 1,93,-1
 10 20 l 1,90,-1
10 -10 m 1,94,-1
 10 0 l 1,95,-1
 20 0 l 1,96,-1
 20 -10 l 1,97,-1
 10 -10 l 1,94,-1
10 50 m 1,98,-1
 10 60 l 1,99,-1
 20 60 l 1,100,-1
 20 50 l 1,101,-1
 10 50 l 1,98,-1
10 80 m 1,102,-1
 10 90 l 1,103,-1
 20 90 l 1,104,-1
 20 80 l 1,105,-1
 10 80 l 1,102,-1
40 20 m 1,106,-1
 40 30 l 1,107,-1
 50 30 l 1,108,-1
 50 20 l 1,109,-1
 40 20 l 1,106,-1
40 -10 m 1,110,-1
 40 0 l 1,111,-1
 50 0 l 1,112,-1
 50 -10 l 1,113,-1
 40 -10 l 1,110,-1
40 50 m 1,114,-1
 40 60 l 1,115,-1
 50 60 l 1,116,-1
 50 50 l 1,117,-1
 40 50 l 1,114,-1
40 80 m 1,118,-1
 40 90 l 1,119,-1
 50 90 l 1,120,-1
 50 80 l 1,121,-1
 40 80 l 1,118,-1
EndSplineSet
EndChar

StartChar: uni0007
Encoding: 7 7 5
Width: 70
VWidth: 140
Flags: W
LayerCount: 2
Fore
SplineSet
0 50 m 1,0,-1
 0 70 l 1,1,-1
 10 70 l 1,2,-1
 10 80 l 1,3,-1
 40 80 l 1,4,-1
 40 70 l 1,5,-1
 50 70 l 1,6,-1
 50 50 l 1,7,-1
 40 50 l 1,8,-1
 40 40 l 1,9,-1
 10 40 l 1,10,-1
 10 50 l 1,11,-1
 0 50 l 1,0,-1
20 50 m 1,12,-1
 30 50 l 1,13,-1
 30 70 l 1,14,-1
 20 70 l 1,15,-1
 20 50 l 1,12,-1
EndSplineSet
EndChar

StartChar: uni000B
Encoding: 11 11 6
Width: 70
VWidth: 140
Flags: W
LayerCount: 2
Fore
SplineSet
0 30 m 1,0,-1
 0 40 l 1,1,-1
 20 40 l 1,2,-1
 20 110 l 1,3,-1
 40 110 l 1,4,-1
 40 30 l 1,5,-1
 0 30 l 1,0,-1
EndSplineSet
EndChar

StartChar: uni000C
Encoding: 12 12 7
Width: 70
VWidth: 140
Flags: W
LayerCount: 2
Fore
SplineSet
0 30 m 1,0,-1
 0 40 l 1,1,-1
 40 40 l 1,2,-1
 40 -30 l 1,3,-1
 20 -30 l 1,4,-1
 20 30 l 1,5,-1
 0 30 l 1,0,-1
EndSplineSet
EndChar

StartChar: uni000E
Encoding: 14 14 8
Width: 70
VWidth: 140
Flags: W
LayerCount: 2
Fore
SplineSet
40 40 m 1,0,-1
 70 40 l 1,1,-1
 70 30 l 1,2,-1
 20 30 l 1,3,-1
 20 110 l 1,4,-1
 40 110 l 1,5,-1
 40 40 l 1,0,-1
EndSplineSet
EndChar

StartChar: uni000F
Encoding: 15 15 9
Width: 70
VWidth: 140
Flags: W
LayerCount: 2
Fore
SplineSet
0 30 m 1,0,-1
 0 40 l 1,1,-1
 20 40 l 1,2,-1
 20 110 l 1,3,-1
 40 110 l 1,4,-1
 40 40 l 1,5,-1
 70 40 l 1,6,-1
 70 30 l 1,7,-1
 40 30 l 1,8,-1
 40 -30 l 1,9,-1
 20 -30 l 1,10,-1
 20 30 l 1,11,-1
 0 30 l 1,0,-1
EndSplineSet
EndChar

StartChar: uni0012
Encoding: 18 18 10
Width: 70
VWidth: 140
Flags: W
LayerCount: 2
Fore
SplineSet
0 30 m 1,0,-1
 0 40 l 1,1,-1
 70 40 l 1,2,-1
 70 30 l 1,3,-1
 0 30 l 1,0,-1
EndSplineSet
EndChar

StartChar: uni0015
Encoding: 21 21 11
Width: 70
VWidth: 140
Flags: W
LayerCount: 2
Fore
SplineSet
40 40 m 1,0,-1
 70 40 l 1,1,-1
 70 30 l 1,2,-1
 40 30 l 1,3,-1
 40 -30 l 1,4,-1
 20 -30 l 1,5,-1
 20 110 l 1,6,-1
 40 110 l 1,7,-1
 40 40 l 1,0,-1
EndSplineSet
EndChar

StartChar: uni0016
Encoding: 22 22 12
Width: 70
VWidth: 140
Flags: W
LayerCount: 2
Fore
SplineSet
0 30 m 1,0,-1
 0 40 l 1,1,-1
 20 40 l 1,2,-1
 20 110 l 1,3,-1
 40 110 l 1,4,-1
 40 -30 l 1,5,-1
 20 -30 l 1,6,-1
 20 30 l 1,7,-1
 0 30 l 1,0,-1
EndSplineSet
EndChar

StartChar: uni0017
Encoding: 23 23 13
Width: 70
VWidth: 140
Flags: W
LayerCount: 2
Fore
SplineSet
0 30 m 1,0,-1
 0 40 l 1,1,-1
 20 40 l 1,2,-1
 20 110 l 1,3,-1
 40 110 l 1,4,-1
 40 40 l 1,5,-1
 70 40 l 1,6,-1
 70 30 l 1,7,-1
 0 30 l 1,0,-1
EndSplineSet
EndChar

StartChar: uni0018
Encoding: 24 24 14
Width: 70
VWidth: 140
Flags: W
LayerCount: 2
Fore
SplineSet
0 30 m 1,0,-1
 0 40 l 1,1,-1
 70 40 l 1,2,-1
 70 30 l 1,3,-1
 40 30 l 1,4,-1
 40 -30 l 1,5,-1
 20 -30 l 1,6,-1
 20 30 l 1,7,-1
 0 30 l 1,0,-1
EndSplineSet
EndChar

StartChar: uni0019
Encoding: 25 25 15
Width: 70
VWidth: 140
Flags: W
LayerCount: 2
Fore
SplineSet
40 -30 m 1,0,-1
 20 -30 l 1,1,-1
 20 110 l 1,2,-1
 40 110 l 1,3,-1
 40 -30 l 1,0,-1
EndSplineSet
EndChar

StartChar: uni001E
Encoding: 30 30 16
Width: 70
VWidth: 140
Flags: W
LayerCount: 2
Fore
SplineSet
0 0 m 1,0,-1
 0 10 l 1,1,-1
 10 10 l 1,2,-1
 10 30 l 1,3,-1
 0 30 l 1,4,-1
 0 40 l 1,5,-1
 10 40 l 1,6,-1
 10 70 l 1,7,-1
 20 70 l 1,8,-1
 20 80 l 1,9,-1
 50 80 l 1,10,-1
 50 70 l 1,11,-1
 60 70 l 1,12,-1
 60 60 l 1,13,-1
 40 60 l 1,14,-1
 40 70 l 1,15,-1
 30 70 l 1,16,-1
 30 40 l 1,17,-1
 50 40 l 1,18,-1
 50 30 l 1,19,-1
 30 30 l 1,20,-1
 30 10 l 1,21,-1
 60 10 l 1,22,-1
 60 0 l 1,23,-1
 0 0 l 1,0,-1
EndSplineSet
EndChar

StartChar: exclam
Encoding: 33 33 17
Width: 70
VWidth: 140
Flags: W
LayerCount: 2
Fore
SplineSet
10 60 m 1,0,-1
 10 80 l 1,1,-1
 20 80 l 1,2,-1
 20 90 l 1,3,-1
 40 90 l 1,4,-1
 40 80 l 1,5,-1
 50 80 l 1,6,-1
 50 60 l 1,7,-1
 40 60 l 1,8,-1
 40 40 l 1,9,-1
 20 40 l 1,10,-1
 20 60 l 1,11,-1
 10 60 l 1,0,-1
20 20 m 1,12,-1
 40 20 l 1,13,-1
 40 0 l 1,14,-1
 20 0 l 1,15,-1
 20 20 l 1,12,-1
EndSplineSet
EndChar

StartChar: quotedbl
Encoding: 34 34 18
Width: 70
VWidth: 140
Flags: W
LayerCount: 2
Fore
SplineSet
0 50 m 1,0,-1
 0 90 l 1,1,-1
 20 90 l 1,2,-1
 20 50 l 1,3,-1
 0 50 l 1,0,-1
50 50 m 1,4,-1
 30 50 l 1,5,-1
 30 90 l 1,6,-1
 50 90 l 1,7,-1
 50 50 l 1,4,-1
EndSplineSet
EndChar

StartChar: numbersign
Encoding: 35 35 19
Width: 70
VWidth: 140
Flags: W
LayerCount: 2
Fore
SplineSet
0 10 m 1,0,-1
 0 30 l 1,1,-1
 10 30 l 1,2,-1
 10 50 l 1,3,-1
 0 50 l 1,4,-1
 0 70 l 1,5,-1
 10 70 l 1,6,-1
 10 90 l 1,7,-1
 20 90 l 1,8,-1
 20 70 l 1,9,-1
 40 70 l 1,10,-1
 40 90 l 1,11,-1
 50 90 l 1,12,-1
 50 70 l 1,13,-1
 60 70 l 1,14,-1
 60 50 l 1,15,-1
 50 50 l 1,16,-1
 50 30 l 1,17,-1
 60 30 l 1,18,-1
 60 10 l 1,19,-1
 50 10 l 1,20,-1
 50 -10 l 1,21,-1
 40 -10 l 1,22,-1
 40 10 l 1,23,-1
 20 10 l 1,24,-1
 20 -10 l 1,25,-1
 10 -10 l 1,26,-1
 10 10 l 1,27,-1
 0 10 l 1,0,-1
20 50 m 1,28,-1
 20 30 l 1,29,-1
 40 30 l 1,30,-1
 40 50 l 1,31,-1
 20 50 l 1,28,-1
EndSplineSet
EndChar

StartChar: dollar
Encoding: 36 36 20
Width: 70
VWidth: 140
Flags: W
LayerCount: 2
Fore
SplineSet
0 10 m 1,0,-1
 0 20 l 1,1,-1
 40 20 l 1,2,-1
 40 30 l 1,3,-1
 30 30 l 1,4,-1
 30 40 l 1,5,-1
 50 40 l 1,6,-1
 50 30 l 1,7,-1
 60 30 l 1,8,-1
 60 20 l 1,9,-1
 50 20 l 1,10,-1
 50 10 l 1,11,-1
 40 10 l 1,12,-1
 40 -10 l 1,13,-1
 20 -10 l 1,14,-1
 20 10 l 1,15,-1
 0 10 l 1,0,-1
0 50 m 1,16,-1
 0 60 l 1,17,-1
 10 60 l 1,18,-1
 10 70 l 1,19,-1
 20 70 l 1,20,-1
 20 90 l 1,21,-1
 40 90 l 1,22,-1
 40 70 l 1,23,-1
 60 70 l 1,24,-1
 60 60 l 1,25,-1
 20 60 l 1,26,-1
 20 50 l 1,27,-1
 30 50 l 1,28,-1
 30 40 l 1,29,-1
 10 40 l 1,30,-1
 10 50 l 1,31,-1
 0 50 l 1,16,-1
EndSplineSet
EndChar

StartChar: percent
Encoding: 37 37 21
Width: 70
VWidth: 140
Flags: W
LayerCount: 2
Fore
SplineSet
0 10 m 1,0,-1
 0 20 l 1,1,-1
 10 20 l 1,2,-1
 10 10 l 1,3,-1
 0 10 l 1,0,-1
0 50 m 1,4,-1
 0 70 l 1,5,-1
 10 70 l 1,6,-1
 10 80 l 1,7,-1
 30 80 l 1,8,-1
 30 70 l 1,9,-1
 20 70 l 1,10,-1
 20 50 l 1,11,-1
 30 50 l 1,12,-1
 30 70 l 1,13,-1
 40 70 l 1,14,-1
 40 60 l 1,15,-1
 50 60 l 1,16,-1
 50 50 l 1,17,-1
 40 50 l 1,18,-1
 40 40 l 1,19,-1
 50 40 l 1,20,-1
 50 30 l 1,21,-1
 40 30 l 1,22,-1
 40 10 l 1,23,-1
 50 10 l 1,24,-1
 50 0 l 1,25,-1
 30 0 l 1,26,-1
 30 10 l 1,27,-1
 20 10 l 1,28,-1
 20 20 l 1,29,-1
 10 20 l 1,30,-1
 10 30 l 1,31,-1
 20 30 l 1,32,-1
 20 40 l 1,33,-1
 10 40 l 1,34,-1
 10 50 l 1,35,-1
 0 50 l 1,4,-1
60 10 m 1,36,-1
 50 10 l 1,37,-1
 50 30 l 1,38,-1
 60 30 l 1,39,-1
 60 10 l 1,36,-1
60 70 m 1,40,-1
 60 60 l 1,41,-1
 50 60 l 1,42,-1
 50 70 l 1,43,-1
 60 70 l 1,40,-1
EndSplineSet
EndChar

StartChar: ampersand
Encoding: 38 38 22
Width: 70
VWidth: 140
Flags: W
LayerCount: 2
Fore
SplineSet
0 10 m 1,0,-1
 0 40 l 1,1,-1
 10 40 l 1,2,-1
 10 50 l 1,3,-1
 0 50 l 1,4,-1
 0 70 l 1,5,-1
 10 70 l 1,6,-1
 10 80 l 1,7,-1
 40 80 l 1,8,-1
 40 70 l 1,9,-1
 50 70 l 1,10,-1
 50 50 l 1,11,-1
 40 50 l 1,12,-1
 40 40 l 1,13,-1
 70 40 l 1,14,-1
 70 30 l 1,15,-1
 60 30 l 1,16,-1
 60 10 l 1,17,-1
 70 10 l 1,18,-1
 70 0 l 1,19,-1
 10 0 l 1,20,-1
 10 10 l 1,21,-1
 0 10 l 1,0,-1
20 10 m 1,22,-1
 40 10 l 1,23,-1
 40 30 l 1,24,-1
 30 30 l 1,25,-1
 30 40 l 1,26,-1
 20 40 l 1,27,-1
 20 10 l 1,22,-1
20 50 m 1,28,-1
 30 50 l 1,29,-1
 30 70 l 1,30,-1
 20 70 l 1,31,-1
 20 50 l 1,28,-1
EndSplineSet
EndChar

StartChar: quotesingle
Encoding: 39 39 23
Width: 70
VWidth: 140
Flags: W
LayerCount: 2
Fore
SplineSet
40 50 m 1,0,-1
 20 50 l 1,1,-1
 20 90 l 1,2,-1
 40 90 l 1,3,-1
 40 50 l 1,0,-1
EndSplineSet
EndChar

StartChar: parenleft
Encoding: 40 40 24
Width: 70
VWidth: 140
Flags: W
LayerCount: 2
Fore
SplineSet
10 10 m 1,0,-1
 10 60 l 1,1,-1
 20 60 l 1,2,-1
 20 80 l 1,3,-1
 30 80 l 1,4,-1
 30 90 l 1,5,-1
 50 90 l 1,6,-1
 50 80 l 1,7,-1
 40 80 l 1,8,-1
 40 60 l 1,9,-1
 30 60 l 1,10,-1
 30 10 l 1,11,-1
 40 10 l 1,12,-1
 40 -10 l 1,13,-1
 50 -10 l 1,14,-1
 50 -20 l 1,15,-1
 30 -20 l 1,16,-1
 30 -10 l 1,17,-1
 20 -10 l 1,18,-1
 20 10 l 1,19,-1
 10 10 l 1,0,-1
EndSplineSet
EndChar

StartChar: parenright
Encoding: 41 41 25
Width: 70
VWidth: 140
Flags: W
LayerCount: 2
Fore
SplineSet
10 -20 m 1,0,-1
 10 -10 l 1,1,-1
 20 -10 l 1,2,-1
 20 10 l 1,3,-1
 30 10 l 1,4,-1
 30 60 l 1,5,-1
 20 60 l 1,6,-1
 20 80 l 1,7,-1
 10 80 l 1,8,-1
 10 90 l 1,9,-1
 30 90 l 1,10,-1
 30 80 l 1,11,-1
 40 80 l 1,12,-1
 40 60 l 1,13,-1
 50 60 l 1,14,-1
 50 10 l 1,15,-1
 40 10 l 1,16,-1
 40 -10 l 1,17,-1
 30 -10 l 1,18,-1
 30 -20 l 1,19,-1
 10 -20 l 1,0,-1
EndSplineSet
EndChar

StartChar: asterisk
Encoding: 42 42 26
Width: 70
VWidth: 140
Flags: W
LayerCount: 2
Fore
SplineSet
0 30 m 1,0,-1
 0 40 l 1,1,-1
 20 40 l 1,2,-1
 20 50 l 1,3,-1
 10 50 l 1,4,-1
 10 60 l 1,5,-1
 30 60 l 1,6,-1
 30 50 l 1,7,-1
 40 50 l 1,8,-1
 40 60 l 1,9,-1
 60 60 l 1,10,-1
 60 50 l 1,11,-1
 50 50 l 1,12,-1
 50 40 l 1,13,-1
 70 40 l 1,14,-1
 70 30 l 1,15,-1
 50 30 l 1,16,-1
 50 20 l 1,17,-1
 60 20 l 1,18,-1
 60 10 l 1,19,-1
 40 10 l 1,20,-1
 40 20 l 1,21,-1
 30 20 l 1,22,-1
 30 10 l 1,23,-1
 10 10 l 1,24,-1
 10 20 l 1,25,-1
 20 20 l 1,26,-1
 20 30 l 1,27,-1
 0 30 l 1,0,-1
EndSplineSet
EndChar

StartChar: plus
Encoding: 43 43 27
Width: 70
VWidth: 140
Flags: W
LayerCount: 2
Fore
SplineSet
40 10 m 1,0,-1
 20 10 l 1,1,-1
 20 30 l 1,2,-1
 0 30 l 1,3,-1
 0 40 l 1,4,-1
 20 40 l 1,5,-1
 20 60 l 1,6,-1
 40 60 l 1,7,-1
 40 40 l 1,8,-1
 60 40 l 1,9,-1
 60 30 l 1,10,-1
 40 30 l 1,11,-1
 40 10 l 1,0,-1
EndSplineSet
EndChar

StartChar: comma
Encoding: 44 44 28
Width: 70
VWidth: 140
Flags: W
LayerCount: 2
Fore
SplineSet
40 -20 m 1,0,-1
 30 -20 l 1,1,-1
 30 -30 l 1,2,-1
 10 -30 l 1,3,-1
 10 -20 l 1,4,-1
 20 -20 l 1,5,-1
 20 0 l 1,6,-1
 10 0 l 1,7,-1
 10 20 l 1,8,-1
 40 20 l 1,9,-1
 40 -20 l 1,0,-1
EndSplineSet
EndChar

StartChar: hyphen
Encoding: 45 45 29
Width: 70
VWidth: 140
Flags: W
LayerCount: 2
Fore
SplineSet
0 30 m 1,0,-1
 0 40 l 1,1,-1
 60 40 l 1,2,-1
 60 30 l 1,3,-1
 0 30 l 1,0,-1
EndSplineSet
EndChar

StartChar: period
Encoding: 46 46 30
Width: 70
VWidth: 140
Flags: W
LayerCount: 2
Fore
SplineSet
40 20 m 1,0,-1
 40 0 l 1,1,-1
 10 0 l 1,2,-1
 10 20 l 1,3,-1
 40 20 l 1,0,-1
EndSplineSet
EndChar

StartChar: slash
Encoding: 47 47 31
Width: 70
VWidth: 140
Flags: W
LayerCount: 2
Fore
SplineSet
0 10 m 1,0,-1
 10 10 l 1,1,-1
 10 30 l 1,2,-1
 20 30 l 1,3,-1
 20 50 l 1,4,-1
 30 50 l 1,5,-1
 30 70 l 1,6,-1
 40 70 l 1,7,-1
 40 90 l 1,8,-1
 60 90 l 1,9,-1
 60 70 l 1,10,-1
 50 70 l 1,11,-1
 50 50 l 1,12,-1
 40 50 l 1,13,-1
 40 30 l 1,14,-1
 30 30 l 1,15,-1
 30 10 l 1,16,-1
 20 10 l 1,17,-1
 20 -10 l 1,18,-1
 0 -10 l 1,19,-1
 0 10 l 1,0,-1
EndSplineSet
EndChar

StartChar: zero
Encoding: 48 48 32
Width: 70
VWidth: 140
Flags: W
LayerCount: 2
Fore
SplineSet
0 10 m 1,0,-1
 0 70 l 1,1,-1
 10 70 l 1,2,-1
 10 80 l 1,3,-1
 50 80 l 1,4,-1
 50 70 l 1,5,-1
 60 70 l 1,6,-1
 60 10 l 1,7,-1
 50 10 l 1,8,-1
 50 0 l 1,9,-1
 10 0 l 1,10,-1
 10 10 l 1,11,-1
 0 10 l 1,0,-1
20 20 m 1,12,-1
 20 10 l 1,13,-1
 40 10 l 1,14,-1
 40 40 l 1,15,-1
 30 40 l 1,16,-1
 30 60 l 1,17,-1
 40 60 l 1,18,-1
 40 70 l 1,19,-1
 20 70 l 1,20,-1
 20 40 l 1,21,-1
 30 40 l 1,22,-1
 30 20 l 1,23,-1
 20 20 l 1,12,-1
EndSplineSet
EndChar

StartChar: one
Encoding: 49 49 33
Width: 70
VWidth: 140
Flags: W
LayerCount: 2
Fore
SplineSet
0 0 m 1,0,-1
 0 10 l 1,1,-1
 20 10 l 1,2,-1
 20 50 l 1,3,-1
 0 50 l 1,4,-1
 0 60 l 1,5,-1
 10 60 l 1,6,-1
 10 70 l 1,7,-1
 20 70 l 1,8,-1
 20 80 l 1,9,-1
 40 80 l 1,10,-1
 40 10 l 1,11,-1
 60 10 l 1,12,-1
 60 0 l 1,13,-1
 0 0 l 1,0,-1
EndSplineSet
EndChar

StartChar: two
Encoding: 50 50 34
Width: 70
VWidth: 140
Flags: W
LayerCount: 2
Fore
SplineSet
0 20 m 1,0,-1
 10 20 l 1,1,-1
 10 30 l 1,2,-1
 20 30 l 1,3,-1
 20 40 l 1,4,-1
 30 40 l 1,5,-1
 30 50 l 1,6,-1
 40 50 l 1,7,-1
 40 70 l 1,8,-1
 20 70 l 1,9,-1
 20 60 l 1,10,-1
 0 60 l 1,11,-1
 0 70 l 1,12,-1
 10 70 l 1,13,-1
 10 80 l 1,14,-1
 50 80 l 1,15,-1
 50 70 l 1,16,-1
 60 70 l 1,17,-1
 60 50 l 1,18,-1
 50 50 l 1,19,-1
 50 40 l 1,20,-1
 40 40 l 1,21,-1
 40 30 l 1,22,-1
 30 30 l 1,23,-1
 30 20 l 1,24,-1
 20 20 l 1,25,-1
 20 10 l 1,26,-1
 60 10 l 1,27,-1
 60 0 l 1,28,-1
 0 0 l 1,29,-1
 0 20 l 1,0,-1
EndSplineSet
EndChar

StartChar: three
Encoding: 51 51 35
Width: 70
VWidth: 140
Flags: W
LayerCount: 2
Fore
SplineSet
0 10 m 1,0,-1
 0 20 l 1,1,-1
 20 20 l 1,2,-1
 20 10 l 1,3,-1
 40 10 l 1,4,-1
 40 40 l 1,5,-1
 20 40 l 1,6,-1
 20 50 l 1,7,-1
 30 50 l 1,8,-1
 30 60 l 1,9,-1
 40 60 l 1,10,-1
 40 70 l 1,11,-1
 0 70 l 1,12,-1
 0 80 l 1,13,-1
 60 80 l 1,14,-1
 60 60 l 1,15,-1
 50 60 l 1,16,-1
 50 40 l 1,17,-1
 60 40 l 1,18,-1
 60 10 l 1,19,-1
 50 10 l 1,20,-1
 50 0 l 1,21,-1
 10 0 l 1,22,-1
 10 10 l 1,23,-1
 0 10 l 1,0,-1
EndSplineSet
EndChar

StartChar: four
Encoding: 52 52 36
Width: 70
VWidth: 140
Flags: W
LayerCount: 2
Fore
SplineSet
0 50 m 1,0,-1
 10 50 l 1,1,-1
 10 40 l 1,2,-1
 30 40 l 1,3,-1
 30 60 l 1,4,-1
 20 60 l 1,5,-1
 20 70 l 1,6,-1
 30 70 l 1,7,-1
 30 80 l 1,8,-1
 50 80 l 1,9,-1
 50 40 l 1,10,-1
 60 40 l 1,11,-1
 60 30 l 1,12,-1
 50 30 l 1,13,-1
 50 0 l 1,14,-1
 30 0 l 1,15,-1
 30 30 l 1,16,-1
 0 30 l 1,17,-1
 0 50 l 1,0,-1
10 50 m 1,18,-1
 10 60 l 1,19,-1
 20 60 l 1,20,-1
 20 50 l 1,21,-1
 10 50 l 1,18,-1
EndSplineSet
EndChar

StartChar: five
Encoding: 53 53 37
Width: 70
VWidth: 140
Flags: W
LayerCount: 2
Fore
SplineSet
0 10 m 1,0,-1
 0 20 l 1,1,-1
 20 20 l 1,2,-1
 20 10 l 1,3,-1
 40 10 l 1,4,-1
 40 40 l 1,5,-1
 0 40 l 1,6,-1
 0 80 l 1,7,-1
 60 80 l 1,8,-1
 60 70 l 1,9,-1
 20 70 l 1,10,-1
 20 50 l 1,11,-1
 50 50 l 1,12,-1
 50 40 l 1,13,-1
 60 40 l 1,14,-1
 60 10 l 1,15,-1
 50 10 l 1,16,-1
 50 0 l 1,17,-1
 10 0 l 1,18,-1
 10 10 l 1,19,-1
 0 10 l 1,0,-1
EndSplineSet
EndChar

StartChar: six
Encoding: 54 54 38
Width: 70
VWidth: 140
Flags: W
LayerCount: 2
Fore
SplineSet
0 10 m 1,0,-1
 0 60 l 1,1,-1
 10 60 l 1,2,-1
 10 70 l 1,3,-1
 20 70 l 1,4,-1
 20 80 l 1,5,-1
 50 80 l 1,6,-1
 50 70 l 1,7,-1
 30 70 l 1,8,-1
 30 60 l 1,9,-1
 20 60 l 1,10,-1
 20 50 l 1,11,-1
 50 50 l 1,12,-1
 50 40 l 1,13,-1
 60 40 l 1,14,-1
 60 10 l 1,15,-1
 50 10 l 1,16,-1
 50 0 l 1,17,-1
 10 0 l 1,18,-1
 10 10 l 1,19,-1
 0 10 l 1,0,-1
20 10 m 1,20,-1
 40 10 l 1,21,-1
 40 40 l 1,22,-1
 20 40 l 1,23,-1
 20 10 l 1,20,-1
EndSplineSet
EndChar

StartChar: seven
Encoding: 55 55 39
Width: 70
VWidth: 140
Flags: W
LayerCount: 2
Fore
SplineSet
0 70 m 1,0,-1
 0 80 l 1,1,-1
 60 80 l 1,2,-1
 60 60 l 1,3,-1
 50 60 l 1,4,-1
 50 40 l 1,5,-1
 40 40 l 1,6,-1
 40 20 l 1,7,-1
 30 20 l 1,8,-1
 30 0 l 1,9,-1
 10 0 l 1,10,-1
 10 20 l 1,11,-1
 20 20 l 1,12,-1
 20 40 l 1,13,-1
 30 40 l 1,14,-1
 30 60 l 1,15,-1
 40 60 l 1,16,-1
 40 70 l 1,17,-1
 0 70 l 1,0,-1
EndSplineSet
EndChar

StartChar: eight
Encoding: 56 56 40
Width: 70
VWidth: 140
Flags: W
LayerCount: 2
Fore
SplineSet
0 10 m 1,0,-1
 0 40 l 1,1,-1
 10 40 l 1,2,-1
 10 50 l 1,3,-1
 0 50 l 1,4,-1
 0 70 l 1,5,-1
 10 70 l 1,6,-1
 10 80 l 1,7,-1
 50 80 l 1,8,-1
 50 70 l 1,9,-1
 60 70 l 1,10,-1
 60 50 l 1,11,-1
 50 50 l 1,12,-1
 50 40 l 1,13,-1
 60 40 l 1,14,-1
 60 10 l 1,15,-1
 50 10 l 1,16,-1
 50 0 l 1,17,-1
 10 0 l 1,18,-1
 10 10 l 1,19,-1
 0 10 l 1,0,-1
20 10 m 1,20,-1
 40 10 l 1,21,-1
 40 40 l 1,22,-1
 20 40 l 1,23,-1
 20 10 l 1,20,-1
20 50 m 1,24,-1
 40 50 l 1,25,-1
 40 70 l 1,26,-1
 20 70 l 1,27,-1
 20 50 l 1,24,-1
EndSplineSet
EndChar

StartChar: nine
Encoding: 57 57 41
Width: 70
VWidth: 140
Flags: W
LayerCount: 2
Fore
SplineSet
0 40 m 1,0,-1
 0 70 l 1,1,-1
 10 70 l 1,2,-1
 10 80 l 1,3,-1
 50 80 l 1,4,-1
 50 70 l 1,5,-1
 60 70 l 1,6,-1
 60 20 l 1,7,-1
 50 20 l 1,8,-1
 50 10 l 1,9,-1
 40 10 l 1,10,-1
 40 0 l 1,11,-1
 10 0 l 1,12,-1
 10 10 l 1,13,-1
 30 10 l 1,14,-1
 30 20 l 1,15,-1
 40 20 l 1,16,-1
 40 30 l 1,17,-1
 10 30 l 1,18,-1
 10 40 l 1,19,-1
 0 40 l 1,0,-1
20 40 m 1,20,-1
 40 40 l 1,21,-1
 40 70 l 1,22,-1
 20 70 l 1,23,-1
 20 40 l 1,20,-1
EndSplineSet
EndChar

StartChar: colon
Encoding: 58 58 42
Width: 70
VWidth: 140
Flags: W
LayerCount: 2
Fore
SplineSet
40 20 m 1,0,-1
 40 0 l 1,1,-1
 10 0 l 1,2,-1
 10 20 l 1,3,-1
 40 20 l 1,0,-1
40 50 m 1,4,-1
 10 50 l 1,5,-1
 10 70 l 1,6,-1
 40 70 l 1,7,-1
 40 50 l 1,4,-1
EndSplineSet
EndChar

StartChar: semicolon
Encoding: 59 59 43
Width: 70
VWidth: 140
Flags: W
LayerCount: 2
Fore
SplineSet
10 -20 m 1,0,-1
 20 -20 l 1,1,-1
 20 0 l 1,2,-1
 10 0 l 1,3,-1
 10 20 l 1,4,-1
 40 20 l 1,5,-1
 40 -20 l 1,6,-1
 30 -20 l 1,7,-1
 30 -30 l 1,8,-1
 10 -30 l 1,9,-1
 10 -20 l 1,0,-1
10 50 m 1,10,-1
 10 70 l 1,11,-1
 40 70 l 1,12,-1
 40 50 l 1,13,-1
 10 50 l 1,10,-1
EndSplineSet
EndChar

StartChar: less
Encoding: 60 60 44
Width: 70
VWidth: 140
Flags: W
LayerCount: 2
Fore
SplineSet
20 20 m 1,0,-1
 20 30 l 1,1,-1
 10 30 l 1,2,-1
 10 40 l 1,3,-1
 20 40 l 1,4,-1
 20 50 l 1,5,-1
 30 50 l 1,6,-1
 30 60 l 1,7,-1
 40 60 l 1,8,-1
 40 70 l 1,9,-1
 60 70 l 1,10,-1
 60 60 l 1,11,-1
 50 60 l 1,12,-1
 50 50 l 1,13,-1
 40 50 l 1,14,-1
 40 40 l 1,15,-1
 30 40 l 1,16,-1
 30 30 l 1,17,-1
 40 30 l 1,18,-1
 40 20 l 1,19,-1
 50 20 l 1,20,-1
 50 10 l 1,21,-1
 60 10 l 1,22,-1
 60 0 l 1,23,-1
 40 0 l 1,24,-1
 40 10 l 1,25,-1
 30 10 l 1,26,-1
 30 20 l 1,27,-1
 20 20 l 1,0,-1
EndSplineSet
EndChar

StartChar: equal
Encoding: 61 61 45
Width: 70
VWidth: 140
Flags: W
LayerCount: 2
Fore
SplineSet
0 20 m 1,0,-1
 0 30 l 1,1,-1
 60 30 l 1,2,-1
 60 20 l 1,3,-1
 0 20 l 1,0,-1
0 50 m 1,4,-1
 0 60 l 1,5,-1
 60 60 l 1,6,-1
 60 50 l 1,7,-1
 0 50 l 1,4,-1
EndSplineSet
EndChar

StartChar: greater
Encoding: 62 62 46
Width: 70
VWidth: 140
Flags: W
LayerCount: 2
Fore
SplineSet
0 0 m 1,0,-1
 0 10 l 1,1,-1
 10 10 l 1,2,-1
 10 20 l 1,3,-1
 20 20 l 1,4,-1
 20 30 l 1,5,-1
 30 30 l 1,6,-1
 30 40 l 1,7,-1
 20 40 l 1,8,-1
 20 50 l 1,9,-1
 10 50 l 1,10,-1
 10 60 l 1,11,-1
 0 60 l 1,12,-1
 0 70 l 1,13,-1
 20 70 l 1,14,-1
 20 60 l 1,15,-1
 30 60 l 1,16,-1
 30 50 l 1,17,-1
 40 50 l 1,18,-1
 40 40 l 1,19,-1
 50 40 l 1,20,-1
 50 30 l 1,21,-1
 40 30 l 1,22,-1
 40 20 l 1,23,-1
 30 20 l 1,24,-1
 30 10 l 1,25,-1
 20 10 l 1,26,-1
 20 0 l 1,27,-1
 0 0 l 1,0,-1
EndSplineSet
EndChar

StartChar: question
Encoding: 63 63 47
Width: 70
VWidth: 140
Flags: W
LayerCount: 2
Fore
SplineSet
0 70 m 1,0,-1
 0 80 l 1,1,-1
 10 80 l 1,2,-1
 10 70 l 1,3,-1
 0 70 l 1,0,-1
10 80 m 1,4,-1
 10 90 l 1,5,-1
 50 90 l 1,6,-1
 50 80 l 1,7,-1
 60 80 l 1,8,-1
 60 60 l 1,9,-1
 50 60 l 1,10,-1
 50 50 l 1,11,-1
 40 50 l 1,12,-1
 40 40 l 1,13,-1
 20 40 l 1,14,-1
 20 50 l 1,15,-1
 30 50 l 1,16,-1
 30 60 l 1,17,-1
 40 60 l 1,18,-1
 40 80 l 1,19,-1
 10 80 l 1,4,-1
20 20 m 1,20,-1
 40 20 l 1,21,-1
 40 0 l 1,22,-1
 20 0 l 1,23,-1
 20 20 l 1,20,-1
EndSplineSet
EndChar

StartChar: at
Encoding: 64 64 48
Width: 70
VWidth: 140
Flags: W
LayerCount: 2
Fore
SplineSet
0 0 m 1,0,-1
 0 70 l 1,1,-1
 10 70 l 1,2,-1
 10 80 l 1,3,-1
 50 80 l 1,4,-1
 50 70 l 1,5,-1
 60 70 l 1,6,-1
 60 20 l 1,7,-1
 30 20 l 1,8,-1
 30 50 l 1,9,-1
 40 50 l 1,10,-1
 40 70 l 1,11,-1
 20 70 l 1,12,-1
 20 0 l 1,13,-1
 60 0 l 1,14,-1
 60 -10 l 1,15,-1
 10 -10 l 1,16,-1
 10 0 l 1,17,-1
 0 0 l 1,0,-1
EndSplineSet
EndChar

StartChar: A
Encoding: 65 65 49
Width: 70
VWidth: 140
Flags: W
LayerCount: 2
Fore
SplineSet
0 0 m 1,0,-1
 0 60 l 1,1,-1
 10 60 l 1,2,-1
 10 70 l 1,3,-1
 20 70 l 1,4,-1
 20 80 l 1,5,-1
 40 80 l 1,6,-1
 40 70 l 1,7,-1
 50 70 l 1,8,-1
 50 60 l 1,9,-1
 60 60 l 1,10,-1
 60 0 l 1,11,-1
 40 0 l 1,12,-1
 40 30 l 1,13,-1
 20 30 l 1,14,-1
 20 0 l 1,15,-1
 0 0 l 1,0,-1
20 40 m 1,16,-1
 40 40 l 1,17,-1
 40 60 l 1,18,-1
 20 60 l 1,19,-1
 20 40 l 1,16,-1
EndSplineSet
EndChar

StartChar: B
Encoding: 66 66 50
Width: 70
VWidth: 140
Flags: W
LayerCount: 2
Fore
SplineSet
0 0 m 1,0,-1
 0 80 l 1,1,-1
 50 80 l 1,2,-1
 50 70 l 1,3,-1
 60 70 l 1,4,-1
 60 50 l 1,5,-1
 50 50 l 1,6,-1
 50 40 l 1,7,-1
 60 40 l 1,8,-1
 60 10 l 1,9,-1
 50 10 l 1,10,-1
 50 0 l 1,11,-1
 0 0 l 1,0,-1
20 10 m 1,12,-1
 40 10 l 1,13,-1
 40 40 l 1,14,-1
 20 40 l 1,15,-1
 20 10 l 1,12,-1
20 50 m 1,16,-1
 40 50 l 1,17,-1
 40 70 l 1,18,-1
 20 70 l 1,19,-1
 20 50 l 1,16,-1
EndSplineSet
EndChar

StartChar: C
Encoding: 67 67 51
Width: 70
VWidth: 140
Flags: W
LayerCount: 2
Fore
SplineSet
0 20 m 1,0,-1
 0 60 l 1,1,-1
 10 60 l 1,2,-1
 10 70 l 1,3,-1
 20 70 l 1,4,-1
 20 80 l 1,5,-1
 60 80 l 1,6,-1
 60 70 l 1,7,-1
 30 70 l 1,8,-1
 30 60 l 1,9,-1
 20 60 l 1,10,-1
 20 20 l 1,11,-1
 30 20 l 1,12,-1
 30 10 l 1,13,-1
 60 10 l 1,14,-1
 60 0 l 1,15,-1
 20 0 l 1,16,-1
 20 10 l 1,17,-1
 10 10 l 1,18,-1
 10 20 l 1,19,-1
 0 20 l 1,0,-1
EndSplineSet
EndChar

StartChar: D
Encoding: 68 68 52
Width: 70
VWidth: 140
Flags: W
LayerCount: 2
Fore
SplineSet
0 0 m 1,0,-1
 0 80 l 1,1,-1
 40 80 l 5,2,-1
 40 70 l 1,3,-1
 50 70 l 1,4,-1
 50 60 l 1,5,-1
 60 60 l 1,6,-1
 60 20 l 1,7,-1
 50 20 l 1,8,-1
 50 10 l 1,9,-1
 40 10 l 1,10,-1
 40 0 l 1,11,-1
 0 0 l 1,0,-1
20 10 m 1,12,-1
 30 10 l 1,13,-1
 30 20 l 1,14,-1
 40 20 l 1,15,-1
 40 60 l 1,16,-1
 30 60 l 1,17,-1
 30 70 l 1,18,-1
 20 70 l 1,19,-1
 20 10 l 1,12,-1
EndSplineSet
EndChar

StartChar: E
Encoding: 69 69 53
Width: 70
VWidth: 140
Flags: W
LayerCount: 2
Fore
SplineSet
0 0 m 1,0,-1
 0 80 l 1,1,-1
 60 80 l 1,2,-1
 60 70 l 1,3,-1
 20 70 l 1,4,-1
 20 50 l 1,5,-1
 50 50 l 1,6,-1
 50 40 l 1,7,-1
 20 40 l 1,8,-1
 20 10 l 1,9,-1
 60 10 l 1,10,-1
 60 0 l 1,11,-1
 0 0 l 1,0,-1
EndSplineSet
EndChar

StartChar: F
Encoding: 70 70 54
Width: 70
VWidth: 140
Flags: W
LayerCount: 2
Fore
SplineSet
0 0 m 1,0,-1
 0 80 l 1,1,-1
 60 80 l 1,2,-1
 60 70 l 1,3,-1
 20 70 l 1,4,-1
 20 50 l 1,5,-1
 50 50 l 1,6,-1
 50 40 l 1,7,-1
 20 40 l 1,8,-1
 20 0 l 1,9,-1
 0 0 l 1,0,-1
EndSplineSet
EndChar

StartChar: G
Encoding: 71 71 55
Width: 70
VWidth: 140
Flags: W
LayerCount: 2
Fore
SplineSet
0 20 m 1,0,-1
 0 60 l 1,1,-1
 10 60 l 1,2,-1
 10 70 l 1,3,-1
 20 70 l 1,4,-1
 20 80 l 1,5,-1
 60 80 l 1,6,-1
 60 70 l 1,7,-1
 30 70 l 1,8,-1
 30 60 l 1,9,-1
 20 60 l 1,10,-1
 20 20 l 1,11,-1
 30 20 l 1,12,-1
 30 10 l 1,13,-1
 40 10 l 1,14,-1
 40 50 l 1,15,-1
 60 50 l 1,16,-1
 60 0 l 1,17,-1
 20 0 l 1,18,-1
 20 10 l 1,19,-1
 10 10 l 1,20,-1
 10 20 l 1,21,-1
 0 20 l 1,0,-1
EndSplineSet
EndChar

StartChar: H
Encoding: 72 72 56
Width: 70
VWidth: 140
Flags: W
LayerCount: 2
Fore
SplineSet
0 0 m 1,0,-1
 0 80 l 1,1,-1
 20 80 l 1,2,-1
 20 50 l 1,3,-1
 40 50 l 1,4,-1
 40 80 l 1,5,-1
 60 80 l 1,6,-1
 60 0 l 1,7,-1
 40 0 l 1,8,-1
 40 40 l 1,9,-1
 20 40 l 1,10,-1
 20 0 l 1,11,-1
 0 0 l 1,0,-1
EndSplineSet
EndChar

StartChar: I
Encoding: 73 73 57
Width: 70
VWidth: 140
Flags: W
LayerCount: 2
Fore
SplineSet
0 0 m 1,0,-1
 0 10 l 1,1,-1
 20 10 l 1,2,-1
 20 70 l 1,3,-1
 0 70 l 1,4,-1
 0 80 l 1,5,-1
 60 80 l 1,6,-1
 60 70 l 1,7,-1
 40 70 l 1,8,-1
 40 10 l 1,9,-1
 60 10 l 1,10,-1
 60 0 l 1,11,-1
 0 0 l 1,0,-1
EndSplineSet
EndChar

StartChar: J
Encoding: 74 74 58
Width: 70
VWidth: 140
Flags: W
LayerCount: 2
Fore
SplineSet
0 10 m 1,0,-1
 0 30 l 1,1,-1
 20 30 l 1,2,-1
 20 10 l 1,3,-1
 40 10 l 1,4,-1
 40 80 l 1,5,-1
 60 80 l 1,6,-1
 60 10 l 1,7,-1
 50 10 l 1,8,-1
 50 0 l 1,9,-1
 10 0 l 1,10,-1
 10 10 l 1,11,-1
 0 10 l 1,0,-1
EndSplineSet
EndChar

StartChar: K
Encoding: 75 75 59
Width: 70
VWidth: 140
Flags: W
LayerCount: 2
Fore
SplineSet
0 0 m 1,0,-1
 0 80 l 1,1,-1
 20 80 l 1,2,-1
 20 60 l 1,3,-1
 30 60 l 1,4,-1
 30 70 l 1,5,-1
 40 70 l 1,6,-1
 40 80 l 1,7,-1
 60 80 l 1,8,-1
 60 70 l 1,9,-1
 50 70 l 1,10,-1
 50 60 l 1,11,-1
 40 60 l 1,12,-1
 40 50 l 1,13,-1
 30 50 l 1,14,-1
 30 30 l 1,15,-1
 40 30 l 1,16,-1
 40 20 l 1,17,-1
 50 20 l 1,18,-1
 50 10 l 1,19,-1
 60 10 l 1,20,-1
 60 0 l 1,21,-1
 40 0 l 1,22,-1
 40 10 l 1,23,-1
 30 10 l 1,24,-1
 30 20 l 1,25,-1
 20 20 l 1,26,-1
 20 0 l 1,27,-1
 0 0 l 1,0,-1
EndSplineSet
EndChar

StartChar: L
Encoding: 76 76 60
Width: 70
VWidth: 140
Flags: W
LayerCount: 2
Fore
SplineSet
0 0 m 1,0,-1
 0 80 l 1,1,-1
 20 80 l 1,2,-1
 20 10 l 1,3,-1
 60 10 l 1,4,-1
 60 0 l 1,5,-1
 0 0 l 1,0,-1
EndSplineSet
EndChar

StartChar: M
Encoding: 77 77 61
Width: 70
VWidth: 140
Flags: W
LayerCount: 2
Fore
SplineSet
40 40 m 9,0,-1
 20 40 l 17,1,-1
 20 0 l 1,2,-1
 0 0 l 1,3,-1
 0 80 l 1,4,-1
 10 80 l 1,5,-1
 10 70 l 1,6,-1
 20 70 l 1,7,-1
 20 60 l 1,8,-1
 40 60 l 1,9,-1
 40 70 l 1,10,-1
 50 70 l 1,11,-1
 50 80 l 1,12,-1
 60 80 l 1,13,-1
 60 0 l 1,14,-1
 40 0 l 1,15,-1
 40 40 l 9,0,-1
EndSplineSet
EndChar

StartChar: N
Encoding: 78 78 62
Width: 70
VWidth: 140
Flags: W
LayerCount: 2
Fore
SplineSet
0 0 m 1,0,-1
 0 80 l 1,1,-1
 20 80 l 1,2,-1
 20 70 l 1,3,-1
 30 70 l 1,4,-1
 30 60 l 1,5,-1
 40 60 l 1,6,-1
 40 80 l 1,7,-1
 60 80 l 1,8,-1
 60 0 l 1,9,-1
 40 0 l 1,10,-1
 40 40 l 1,11,-1
 30 40 l 1,12,-1
 30 50 l 1,13,-1
 20 50 l 1,14,-1
 20 0 l 1,15,-1
 0 0 l 1,0,-1
EndSplineSet
EndChar

StartChar: O
Encoding: 79 79 63
Width: 70
VWidth: 140
Flags: W
LayerCount: 2
Fore
SplineSet
0 10 m 1,0,-1
 0 70 l 1,1,-1
 10 70 l 1,2,-1
 10 80 l 1,3,-1
 50 80 l 1,4,-1
 50 70 l 1,5,-1
 60 70 l 1,6,-1
 60 10 l 1,7,-1
 50 10 l 1,8,-1
 50 0 l 1,9,-1
 10 0 l 1,10,-1
 10 10 l 1,11,-1
 0 10 l 1,0,-1
20 10 m 1,12,-1
 40 10 l 1,13,-1
 40 70 l 1,14,-1
 20 70 l 1,15,-1
 20 10 l 1,12,-1
EndSplineSet
EndChar

StartChar: P
Encoding: 80 80 64
Width: 70
VWidth: 140
Flags: W
LayerCount: 2
Fore
SplineSet
0 0 m 1,0,-1
 0 80 l 1,1,-1
 50 80 l 1,2,-1
 50 70 l 1,3,-1
 60 70 l 1,4,-1
 60 40 l 1,5,-1
 50 40 l 1,6,-1
 50 30 l 1,7,-1
 20 30 l 1,8,-1
 20 0 l 1,9,-1
 0 0 l 1,0,-1
20 40 m 1,10,-1
 40 40 l 1,11,-1
 40 70 l 1,12,-1
 20 70 l 1,13,-1
 20 40 l 1,10,-1
EndSplineSet
EndChar

StartChar: Q
Encoding: 81 81 65
Width: 70
VWidth: 140
Flags: W
LayerCount: 2
Fore
SplineSet
0 10 m 1,0,-1
 0 70 l 1,1,-1
 10 70 l 1,2,-1
 10 80 l 1,3,-1
 50 80 l 1,4,-1
 50 70 l 1,5,-1
 60 70 l 1,6,-1
 60 10 l 1,7,-1
 50 10 l 1,8,-1
 50 -10 l 1,9,-1
 60 -10 l 1,10,-1
 60 -20 l 1,11,-1
 40 -20 l 1,12,-1
 40 -10 l 1,13,-1
 30 -10 l 1,14,-1
 30 0 l 1,15,-1
 10 0 l 1,16,-1
 10 10 l 1,17,-1
 0 10 l 1,0,-1
20 10 m 1,18,-1
 40 10 l 1,19,-1
 40 70 l 1,20,-1
 20 70 l 1,21,-1
 20 10 l 1,18,-1
EndSplineSet
EndChar

StartChar: R
Encoding: 82 82 66
Width: 70
VWidth: 140
Flags: W
LayerCount: 2
Fore
SplineSet
0 0 m 1,0,-1
 0 80 l 1,1,-1
 50 80 l 1,2,-1
 50 70 l 1,3,-1
 60 70 l 1,4,-1
 60 40 l 1,5,-1
 50 40 l 1,6,-1
 50 30 l 1,7,-1
 40 30 l 1,8,-1
 40 20 l 1,9,-1
 50 20 l 1,10,-1
 50 10 l 1,11,-1
 60 10 l 1,12,-1
 60 0 l 1,13,-1
 40 0 l 1,14,-1
 40 10 l 1,15,-1
 30 10 l 1,16,-1
 30 20 l 1,17,-1
 20 20 l 1,18,-1
 20 0 l 1,19,-1
 0 0 l 1,0,-1
20 40 m 1,20,-1
 40 40 l 1,21,-1
 40 70 l 1,22,-1
 20 70 l 1,23,-1
 20 40 l 1,20,-1
EndSplineSet
EndChar

StartChar: S
Encoding: 83 83 67
Width: 70
VWidth: 140
Flags: W
LayerCount: 2
Fore
SplineSet
0 0 m 1,0,-1
 0 10 l 1,1,-1
 40 10 l 1,2,-1
 40 30 l 1,3,-1
 30 30 l 1,4,-1
 30 40 l 1,5,-1
 10 40 l 1,6,-1
 10 50 l 1,7,-1
 0 50 l 1,8,-1
 0 70 l 1,9,-1
 10 70 l 1,10,-1
 10 80 l 1,11,-1
 60 80 l 1,12,-1
 60 70 l 1,13,-1
 20 70 l 1,14,-1
 20 50 l 1,15,-1
 40 50 l 1,16,-1
 40 40 l 1,17,-1
 50 40 l 1,18,-1
 50 30 l 1,19,-1
 60 30 l 1,20,-1
 60 10 l 1,21,-1
 50 10 l 1,22,-1
 50 0 l 1,23,-1
 0 0 l 1,0,-1
EndSplineSet
EndChar

StartChar: T
Encoding: 84 84 68
Width: 70
VWidth: 140
Flags: W
LayerCount: 2
Fore
SplineSet
40 0 m 1,0,-1
 20 0 l 1,1,-1
 20 70 l 1,2,-1
 0 70 l 1,3,-1
 0 80 l 1,4,-1
 60 80 l 1,5,-1
 60 70 l 1,6,-1
 40 70 l 1,7,-1
 40 0 l 1,0,-1
EndSplineSet
EndChar

StartChar: U
Encoding: 85 85 69
Width: 70
VWidth: 140
Flags: W
LayerCount: 2
Fore
SplineSet
0 10 m 1,0,-1
 0 80 l 1,1,-1
 20 80 l 1,2,-1
 20 10 l 1,3,-1
 40 10 l 1,4,-1
 40 80 l 1,5,-1
 60 80 l 1,6,-1
 60 10 l 1,7,-1
 50 10 l 1,8,-1
 50 0 l 1,9,-1
 10 0 l 1,10,-1
 10 10 l 1,11,-1
 0 10 l 1,0,-1
EndSplineSet
EndChar

StartChar: V
Encoding: 86 86 70
Width: 70
VWidth: 140
Flags: W
LayerCount: 2
Fore
SplineSet
0 20 m 1,0,-1
 0 80 l 1,1,-1
 20 80 l 1,2,-1
 20 20 l 1,3,-1
 40 20 l 1,4,-1
 40 80 l 1,5,-1
 60 80 l 1,6,-1
 60 20 l 1,7,-1
 50 20 l 1,8,-1
 50 10 l 1,9,-1
 40 10 l 1,10,-1
 40 0 l 1,11,-1
 20 0 l 1,12,-1
 20 10 l 1,13,-1
 10 10 l 1,14,-1
 10 20 l 1,15,-1
 0 20 l 1,0,-1
EndSplineSet
EndChar

StartChar: W
Encoding: 87 87 71
Width: 70
VWidth: 140
Flags: W
LayerCount: 2
Fore
SplineSet
20 40 m 9,0,-1
 40 40 l 17,1,-1
 40 80 l 1,2,-1
 60 80 l 1,3,-1
 60 0 l 1,4,-1
 50 0 l 1,5,-1
 50 10 l 1,6,-1
 40 10 l 1,7,-1
 40 20 l 1,8,-1
 20 20 l 1,9,-1
 20 10 l 1,10,-1
 10 10 l 1,11,-1
 10 0 l 1,12,-1
 0 0 l 1,13,-1
 0 80 l 1,14,-1
 20 80 l 1,15,-1
 20 40 l 9,0,-1
EndSplineSet
EndChar

StartChar: X
Encoding: 88 88 72
Width: 70
VWidth: 140
Flags: W
LayerCount: 2
Fore
SplineSet
0 20 m 1,0,-1
 10 20 l 1,1,-1
 10 30 l 1,2,-1
 20 30 l 1,3,-1
 20 50 l 1,4,-1
 10 50 l 1,5,-1
 10 60 l 1,6,-1
 0 60 l 1,7,-1
 0 80 l 1,8,-1
 20 80 l 1,9,-1
 20 60 l 1,10,-1
 40 60 l 1,11,-1
 40 80 l 1,12,-1
 60 80 l 1,13,-1
 60 60 l 1,14,-1
 50 60 l 1,15,-1
 50 50 l 1,16,-1
 40 50 l 1,17,-1
 40 30 l 1,18,-1
 50 30 l 1,19,-1
 50 20 l 1,20,-1
 60 20 l 1,21,-1
 60 0 l 1,22,-1
 40 0 l 1,23,-1
 40 20 l 1,24,-1
 20 20 l 1,25,-1
 20 0 l 1,26,-1
 0 0 l 1,27,-1
 0 20 l 1,0,-1
EndSplineSet
EndChar

StartChar: Y
Encoding: 89 89 73
Width: 70
VWidth: 140
Flags: W
LayerCount: 2
Fore
SplineSet
0 50 m 1,0,-1
 0 80 l 1,1,-1
 20 80 l 1,2,-1
 20 50 l 1,3,-1
 40 50 l 1,4,-1
 40 80 l 1,5,-1
 60 80 l 1,6,-1
 60 50 l 1,7,-1
 50 50 l 1,8,-1
 50 40 l 1,9,-1
 40 40 l 1,10,-1
 40 0 l 1,11,-1
 20 0 l 1,12,-1
 20 40 l 1,13,-1
 10 40 l 1,14,-1
 10 50 l 1,15,-1
 0 50 l 1,0,-1
EndSplineSet
EndChar

StartChar: Z
Encoding: 90 90 74
Width: 70
VWidth: 140
Flags: W
LayerCount: 2
Fore
SplineSet
0 0 m 1,0,-1
 0 10 l 1,1,-1
 10 10 l 1,2,-1
 10 30 l 1,3,-1
 20 30 l 1,4,-1
 20 50 l 1,5,-1
 30 50 l 1,6,-1
 30 70 l 1,7,-1
 0 70 l 1,8,-1
 0 80 l 1,9,-1
 60 80 l 1,10,-1
 60 70 l 1,11,-1
 50 70 l 1,12,-1
 50 50 l 1,13,-1
 40 50 l 1,14,-1
 40 30 l 1,15,-1
 30 30 l 1,16,-1
 30 10 l 1,17,-1
 60 10 l 1,18,-1
 60 0 l 1,19,-1
 0 0 l 1,0,-1
EndSplineSet
EndChar

StartChar: bracketleft
Encoding: 91 91 75
Width: 70
VWidth: 140
Flags: W
LayerCount: 2
Fore
SplineSet
10 -20 m 1,0,-1
 10 90 l 1,1,-1
 50 90 l 1,2,-1
 50 80 l 1,3,-1
 30 80 l 1,4,-1
 30 -10 l 1,5,-1
 50 -10 l 1,6,-1
 50 -20 l 1,7,-1
 10 -20 l 1,0,-1
EndSplineSet
EndChar

StartChar: backslash
Encoding: 92 92 76
Width: 70
VWidth: 140
Flags: W
LayerCount: 2
Fore
SplineSet
0 70 m 1,0,-1
 0 90 l 1,1,-1
 20 90 l 1,2,-1
 20 70 l 1,3,-1
 30 70 l 1,4,-1
 30 50 l 1,5,-1
 40 50 l 1,6,-1
 40 30 l 1,7,-1
 50 30 l 1,8,-1
 50 10 l 1,9,-1
 60 10 l 1,10,-1
 60 -10 l 1,11,-1
 40 -10 l 1,12,-1
 40 10 l 1,13,-1
 30 10 l 1,14,-1
 30 30 l 1,15,-1
 20 30 l 1,16,-1
 20 50 l 1,17,-1
 10 50 l 1,18,-1
 10 70 l 1,19,-1
 0 70 l 1,0,-1
EndSplineSet
EndChar

StartChar: bracketright
Encoding: 93 93 77
Width: 70
VWidth: 140
Flags: W
LayerCount: 2
Fore
SplineSet
10 -20 m 1,0,-1
 10 -10 l 1,1,-1
 30 -10 l 1,2,-1
 30 80 l 1,3,-1
 10 80 l 1,4,-1
 10 90 l 1,5,-1
 50 90 l 1,6,-1
 50 -20 l 1,7,-1
 10 -20 l 1,0,-1
EndSplineSet
EndChar

StartChar: asciicircum
Encoding: 94 94 78
Width: 70
VWidth: 140
Flags: W
LayerCount: 2
Fore
SplineSet
0 50 m 1,0,-1
 0 60 l 1,1,-1
 10 60 l 1,2,-1
 10 70 l 1,3,-1
 20 70 l 1,4,-1
 20 80 l 1,5,-1
 40 80 l 1,6,-1
 40 70 l 1,7,-1
 50 70 l 1,8,-1
 50 60 l 1,9,-1
 60 60 l 1,10,-1
 60 50 l 1,11,-1
 40 50 l 1,12,-1
 40 60 l 1,13,-1
 20 60 l 1,14,-1
 20 50 l 1,15,-1
 0 50 l 1,0,-1
EndSplineSet
EndChar

StartChar: underscore
Encoding: 95 95 79
Width: 70
VWidth: 140
Flags: W
LayerCount: 2
Fore
SplineSet
0 -20 m 1,0,-1
 0 -10 l 1,1,-1
 70 -10 l 1,2,-1
 70 -20 l 1,3,-1
 0 -20 l 1,0,-1
EndSplineSet
EndChar

StartChar: grave
Encoding: 96 96 80
Width: 70
VWidth: 140
Flags: W
LayerCount: 2
Fore
SplineSet
40 70 m 1,0,-1
 50 70 l 1,1,-1
 50 60 l 1,2,-1
 30 60 l 1,3,-1
 30 70 l 1,4,-1
 20 70 l 1,5,-1
 20 80 l 1,6,-1
 10 80 l 1,7,-1
 10 90 l 1,8,-1
 30 90 l 1,9,-1
 30 80 l 1,10,-1
 40 80 l 1,11,-1
 40 70 l 1,0,-1
EndSplineSet
EndChar

StartChar: a
Encoding: 97 97 81
Width: 70
VWidth: 140
Flags: W
LayerCount: 2
Fore
SplineSet
0 10 m 1,0,-1
 0 30 l 1,1,-1
 10 30 l 1,2,-1
 10 40 l 1,3,-1
 40 40 l 1,4,-1
 40 50 l 1,5,-1
 10 50 l 1,6,-1
 10 60 l 1,7,-1
 50 60 l 1,8,-1
 50 50 l 1,9,-1
 60 50 l 1,10,-1
 60 0 l 1,11,-1
 10 0 l 1,12,-1
 10 10 l 1,13,-1
 0 10 l 1,0,-1
20 10 m 1,14,-1
 40 10 l 1,15,-1
 40 30 l 1,16,-1
 20 30 l 1,17,-1
 20 10 l 1,14,-1
EndSplineSet
EndChar

StartChar: b
Encoding: 98 98 82
Width: 70
VWidth: 140
Flags: W
LayerCount: 2
Fore
SplineSet
0 0 m 1,0,-1
 0 90 l 1,1,-1
 20 90 l 1,2,-1
 20 60 l 1,3,-1
 50 60 l 1,4,-1
 50 50 l 1,5,-1
 60 50 l 1,6,-1
 60 10 l 1,7,-1
 50 10 l 1,8,-1
 50 0 l 1,9,-1
 0 0 l 1,0,-1
20 10 m 1,10,-1
 40 10 l 1,11,-1
 40 50 l 1,12,-1
 20 50 l 1,13,-1
 20 10 l 1,10,-1
EndSplineSet
EndChar

StartChar: c
Encoding: 99 99 83
Width: 70
VWidth: 140
Flags: W
LayerCount: 2
Fore
SplineSet
0 10 m 1,0,-1
 0 50 l 1,1,-1
 10 50 l 1,2,-1
 10 60 l 1,3,-1
 60 60 l 1,4,-1
 60 50 l 1,5,-1
 20 50 l 1,6,-1
 20 10 l 1,7,-1
 60 10 l 1,8,-1
 60 0 l 1,9,-1
 10 0 l 1,10,-1
 10 10 l 1,11,-1
 0 10 l 1,0,-1
EndSplineSet
EndChar

StartChar: d
Encoding: 100 100 84
Width: 70
VWidth: 140
Flags: W
LayerCount: 2
Fore
SplineSet
0 10 m 1,0,-1
 0 50 l 1,1,-1
 10 50 l 1,2,-1
 10 60 l 1,3,-1
 40 60 l 1,4,-1
 40 80 l 1,5,-1
 60 80 l 1,6,-1
 60 0 l 1,7,-1
 10 0 l 1,8,-1
 10 10 l 1,9,-1
 0 10 l 1,0,-1
20 10 m 1,10,-1
 40 10 l 1,11,-1
 40 50 l 1,12,-1
 20 50 l 1,13,-1
 20 10 l 1,10,-1
EndSplineSet
EndChar

StartChar: e
Encoding: 101 101 85
Width: 70
VWidth: 140
Flags: W
LayerCount: 2
Fore
SplineSet
0 10 m 1,0,-1
 0 50 l 1,1,-1
 10 50 l 1,2,-1
 10 60 l 1,3,-1
 50 60 l 1,4,-1
 50 50 l 1,5,-1
 60 50 l 1,6,-1
 60 30 l 1,7,-1
 20 30 l 1,8,-1
 20 10 l 1,9,-1
 60 10 l 1,10,-1
 60 0 l 1,11,-1
 10 0 l 1,12,-1
 10 10 l 1,13,-1
 0 10 l 1,0,-1
20 50 m 1,14,-1
 20 40 l 1,15,-1
 40 40 l 1,16,-1
 40 50 l 1,17,-1
 20 50 l 1,14,-1
EndSplineSet
EndChar

StartChar: f
Encoding: 102 102 86
Width: 70
VWidth: 140
Flags: W
LayerCount: 2
Fore
SplineSet
0 50 m 1,0,-1
 0 60 l 1,1,-1
 10 60 l 1,2,-1
 10 70 l 1,3,-1
 20 70 l 1,4,-1
 20 80 l 1,5,-1
 60 80 l 1,6,-1
 60 70 l 1,7,-1
 30 70 l 1,8,-1
 30 60 l 1,9,-1
 60 60 l 1,10,-1
 60 50 l 1,11,-1
 30 50 l 1,12,-1
 30 0 l 1,13,-1
 10 0 l 1,14,-1
 10 50 l 1,15,-1
 0 50 l 1,0,-1
EndSplineSet
EndChar

StartChar: g
Encoding: 103 103 87
Width: 70
VWidth: 140
Flags: W
LayerCount: 2
Fore
SplineSet
0 10 m 1,0,-1
 0 50 l 1,1,-1
 10 50 l 1,2,-1
 10 60 l 1,3,-1
 60 60 l 1,4,-1
 60 -10 l 1,5,-1
 50 -10 l 1,6,-1
 50 -20 l 1,7,-1
 10 -20 l 1,8,-1
 10 -10 l 1,9,-1
 40 -10 l 1,10,-1
 40 0 l 1,11,-1
 10 0 l 1,12,-1
 10 10 l 1,13,-1
 0 10 l 1,0,-1
20 10 m 1,14,-1
 40 10 l 1,15,-1
 40 50 l 1,16,-1
 20 50 l 1,17,-1
 20 10 l 1,14,-1
EndSplineSet
EndChar

StartChar: h
Encoding: 104 104 88
Width: 70
VWidth: 140
Flags: W
LayerCount: 2
Fore
SplineSet
0 0 m 1,0,-1
 0 90 l 1,1,-1
 20 90 l 1,2,-1
 20 60 l 1,3,-1
 50 60 l 1,4,-1
 50 50 l 1,5,-1
 60 50 l 1,6,-1
 60 0 l 1,7,-1
 40 0 l 1,8,-1
 40 50 l 1,9,-1
 20 50 l 1,10,-1
 20 0 l 1,11,-1
 0 0 l 1,0,-1
EndSplineSet
EndChar

StartChar: i
Encoding: 105 105 89
Width: 70
VWidth: 140
Flags: W
LayerCount: 2
Fore
SplineSet
0 0 m 1,0,-1
 0 10 l 1,1,-1
 20 10 l 1,2,-1
 20 50 l 1,3,-1
 0 50 l 1,4,-1
 0 60 l 1,5,-1
 40 60 l 1,6,-1
 40 10 l 1,7,-1
 60 10 l 1,8,-1
 60 0 l 1,9,-1
 0 0 l 1,0,-1
20 70 m 1,10,-1
 20 90 l 1,11,-1
 40 90 l 1,12,-1
 40 70 l 1,13,-1
 20 70 l 1,10,-1
EndSplineSet
EndChar

StartChar: j
Encoding: 106 106 90
Width: 70
VWidth: 140
Flags: W
LayerCount: 2
Fore
SplineSet
0 -20 m 1,0,-1
 0 -10 l 1,1,-1
 30 -10 l 1,2,-1
 30 50 l 1,3,-1
 10 50 l 1,4,-1
 10 60 l 1,5,-1
 50 60 l 1,6,-1
 50 -10 l 1,7,-1
 40 -10 l 1,8,-1
 40 -20 l 1,9,-1
 0 -20 l 1,0,-1
30 70 m 1,10,-1
 30 90 l 1,11,-1
 50 90 l 1,12,-1
 50 70 l 1,13,-1
 30 70 l 1,10,-1
EndSplineSet
EndChar

StartChar: k
Encoding: 107 107 91
Width: 70
VWidth: 140
Flags: W
LayerCount: 2
Fore
SplineSet
0 0 m 1,0,-1
 0 90 l 1,1,-1
 20 90 l 1,2,-1
 20 50 l 1,3,-1
 30 50 l 1,4,-1
 30 60 l 1,5,-1
 50 60 l 1,6,-1
 50 50 l 1,7,-1
 40 50 l 1,8,-1
 40 40 l 1,9,-1
 30 40 l 1,10,-1
 30 30 l 1,11,-1
 40 30 l 1,12,-1
 40 20 l 1,13,-1
 50 20 l 1,14,-1
 50 10 l 1,15,-1
 60 10 l 1,16,-1
 60 0 l 1,17,-1
 40 0 l 1,18,-1
 40 10 l 1,19,-1
 30 10 l 1,20,-1
 30 20 l 1,21,-1
 20 20 l 1,22,-1
 20 0 l 1,23,-1
 0 0 l 1,0,-1
EndSplineSet
EndChar

StartChar: l
Encoding: 108 108 92
Width: 70
VWidth: 140
Flags: W
LayerCount: 2
Fore
SplineSet
40 10 m 1,0,-1
 60 10 l 1,1,-1
 60 0 l 1,2,-1
 30 0 l 1,3,-1
 30 10 l 1,4,-1
 20 10 l 1,5,-1
 20 80 l 1,6,-1
 0 80 l 1,7,-1
 0 90 l 1,8,-1
 40 90 l 1,9,-1
 40 10 l 1,0,-1
EndSplineSet
EndChar

StartChar: m
Encoding: 109 109 93
Width: 70
VWidth: 140
Flags: W
LayerCount: 2
Fore
SplineSet
0 0 m 1,0,-1
 0 60 l 1,1,-1
 50 60 l 1,2,-1
 50 50 l 1,3,-1
 40 50 l 1,4,-1
 40 0 l 1,5,-1
 30 0 l 1,6,-1
 30 50 l 1,7,-1
 20 50 l 1,8,-1
 20 0 l 1,9,-1
 0 0 l 1,0,-1
50 0 m 1,10,-1
 50 50 l 1,11,-1
 60 50 l 1,12,-1
 60 0 l 1,13,-1
 50 0 l 1,10,-1
EndSplineSet
EndChar

StartChar: n
Encoding: 110 110 94
Width: 70
VWidth: 140
Flags: W
LayerCount: 2
Fore
SplineSet
0 0 m 1,0,-1
 0 60 l 1,1,-1
 50 60 l 1,2,-1
 50 50 l 1,3,-1
 60 50 l 1,4,-1
 60 0 l 1,5,-1
 40 0 l 1,6,-1
 40 50 l 1,7,-1
 20 50 l 1,8,-1
 20 0 l 1,9,-1
 0 0 l 1,0,-1
EndSplineSet
EndChar

StartChar: o
Encoding: 111 111 95
Width: 70
VWidth: 140
Flags: W
LayerCount: 2
Fore
SplineSet
0 10 m 1,0,-1
 0 50 l 1,1,-1
 10 50 l 1,2,-1
 10 60 l 1,3,-1
 50 60 l 1,4,-1
 50 50 l 1,5,-1
 60 50 l 1,6,-1
 60 10 l 1,7,-1
 50 10 l 1,8,-1
 50 0 l 1,9,-1
 10 0 l 1,10,-1
 10 10 l 1,11,-1
 0 10 l 1,0,-1
20 10 m 1,12,-1
 40 10 l 1,13,-1
 40 50 l 1,14,-1
 20 50 l 1,15,-1
 20 10 l 1,12,-1
EndSplineSet
EndChar

StartChar: p
Encoding: 112 112 96
Width: 70
VWidth: 140
Flags: W
LayerCount: 2
Fore
SplineSet
0 -30 m 1,0,-1
 0 60 l 1,1,-1
 50 60 l 1,2,-1
 50 50 l 1,3,-1
 60 50 l 1,4,-1
 60 10 l 1,5,-1
 50 10 l 1,6,-1
 50 0 l 1,7,-1
 20 0 l 1,8,-1
 20 -30 l 1,9,-1
 0 -30 l 1,0,-1
20 10 m 1,10,-1
 40 10 l 1,11,-1
 40 50 l 1,12,-1
 20 50 l 1,13,-1
 20 10 l 1,10,-1
EndSplineSet
EndChar

StartChar: q
Encoding: 113 113 97
Width: 70
VWidth: 140
Flags: W
LayerCount: 2
Fore
SplineSet
0 10 m 1,0,-1
 0 50 l 1,1,-1
 10 50 l 1,2,-1
 10 60 l 1,3,-1
 60 60 l 1,4,-1
 60 -30 l 1,5,-1
 40 -30 l 1,6,-1
 40 0 l 1,7,-1
 10 0 l 1,8,-1
 10 10 l 1,9,-1
 0 10 l 1,0,-1
20 10 m 1,10,-1
 40 10 l 1,11,-1
 40 50 l 1,12,-1
 20 50 l 1,13,-1
 20 10 l 1,10,-1
EndSplineSet
EndChar

StartChar: r
Encoding: 114 114 98
Width: 70
VWidth: 140
Flags: W
LayerCount: 2
Fore
SplineSet
0 0 m 1,0,-1
 0 60 l 1,1,-1
 20 60 l 1,2,-1
 20 50 l 1,3,-1
 30 50 l 1,4,-1
 30 40 l 1,5,-1
 20 40 l 1,6,-1
 20 0 l 1,7,-1
 0 0 l 1,0,-1
60 50 m 1,8,-1
 30 50 l 1,9,-1
 30 60 l 1,10,-1
 60 60 l 1,11,-1
 60 50 l 1,8,-1
EndSplineSet
EndChar

StartChar: s
Encoding: 115 115 99
Width: 70
VWidth: 140
Flags: W
LayerCount: 2
Fore
SplineSet
0 0 m 1,0,-1
 0 10 l 1,1,-1
 40 10 l 1,2,-1
 40 20 l 1,3,-1
 20 20 l 1,4,-1
 20 30 l 1,5,-1
 10 30 l 1,6,-1
 10 40 l 1,7,-1
 0 40 l 1,8,-1
 0 50 l 1,9,-1
 10 50 l 1,10,-1
 10 60 l 1,11,-1
 60 60 l 1,12,-1
 60 50 l 1,13,-1
 20 50 l 1,14,-1
 20 40 l 1,15,-1
 40 40 l 1,16,-1
 40 30 l 1,17,-1
 50 30 l 1,18,-1
 50 20 l 1,19,-1
 60 20 l 1,20,-1
 60 10 l 1,21,-1
 50 10 l 1,22,-1
 50 0 l 1,23,-1
 0 0 l 1,0,-1
EndSplineSet
EndChar

StartChar: t
Encoding: 116 116 100
Width: 70
VWidth: 140
Flags: W
LayerCount: 2
Fore
SplineSet
0 50 m 1,0,-1
 0 60 l 1,1,-1
 10 60 l 1,2,-1
 10 80 l 1,3,-1
 30 80 l 1,4,-1
 30 60 l 1,5,-1
 60 60 l 1,6,-1
 60 50 l 1,7,-1
 30 50 l 1,8,-1
 30 10 l 1,9,-1
 60 10 l 1,10,-1
 60 0 l 1,11,-1
 20 0 l 1,12,-1
 20 10 l 1,13,-1
 10 10 l 1,14,-1
 10 50 l 1,15,-1
 0 50 l 1,0,-1
EndSplineSet
EndChar

StartChar: u
Encoding: 117 117 101
Width: 70
VWidth: 140
Flags: W
LayerCount: 2
Fore
SplineSet
0 10 m 1,0,-1
 0 60 l 1,1,-1
 20 60 l 1,2,-1
 20 10 l 1,3,-1
 40 10 l 1,4,-1
 40 60 l 1,5,-1
 60 60 l 1,6,-1
 60 0 l 1,7,-1
 10 0 l 1,8,-1
 10 10 l 1,9,-1
 0 10 l 1,0,-1
EndSplineSet
EndChar

StartChar: v
Encoding: 118 118 102
Width: 70
VWidth: 140
Flags: W
LayerCount: 2
Fore
SplineSet
0 20 m 1,0,-1
 0 60 l 1,1,-1
 20 60 l 1,2,-1
 20 20 l 1,3,-1
 40 20 l 1,4,-1
 40 60 l 1,5,-1
 60 60 l 1,6,-1
 60 20 l 1,7,-1
 50 20 l 1,8,-1
 50 10 l 1,9,-1
 40 10 l 1,10,-1
 40 0 l 1,11,-1
 20 0 l 1,12,-1
 20 10 l 1,13,-1
 10 10 l 1,14,-1
 10 20 l 1,15,-1
 0 20 l 1,0,-1
EndSplineSet
EndChar

StartChar: w
Encoding: 119 119 103
Width: 70
VWidth: 140
Flags: W
LayerCount: 2
Fore
SplineSet
0 0 m 1,0,-1
 0 60 l 1,1,-1
 20 60 l 1,2,-1
 20 30 l 1,3,-1
 30 30 l 1,4,-1
 30 40 l 1,5,-1
 40 40 l 1,6,-1
 40 30 l 1,7,-1
 50 30 l 1,8,-1
 50 60 l 1,9,-1
 60 60 l 1,10,-1
 60 0 l 1,11,-1
 40 0 l 1,12,-1
 40 10 l 1,13,-1
 30 10 l 1,14,-1
 30 0 l 1,15,-1
 0 0 l 1,0,-1
EndSplineSet
EndChar

StartChar: x
Encoding: 120 120 104
Width: 70
VWidth: 140
Flags: W
LayerCount: 2
Fore
SplineSet
0 0 m 1,0,-1
 0 10 l 1,1,-1
 10 10 l 1,2,-1
 10 20 l 1,3,-1
 20 20 l 1,4,-1
 20 40 l 1,5,-1
 10 40 l 1,6,-1
 10 50 l 1,7,-1
 0 50 l 1,8,-1
 0 60 l 1,9,-1
 20 60 l 1,10,-1
 20 50 l 1,11,-1
 40 50 l 1,12,-1
 40 60 l 1,13,-1
 60 60 l 1,14,-1
 60 50 l 1,15,-1
 50 50 l 1,16,-1
 50 40 l 1,17,-1
 40 40 l 1,18,-1
 40 20 l 1,19,-1
 50 20 l 1,20,-1
 50 10 l 1,21,-1
 60 10 l 1,22,-1
 60 0 l 1,23,-1
 40 0 l 1,24,-1
 40 10 l 1,25,-1
 20 10 l 1,26,-1
 20 0 l 1,27,-1
 0 0 l 1,0,-1
EndSplineSet
EndChar

StartChar: y
Encoding: 121 121 105
Width: 70
VWidth: 140
Flags: W
LayerCount: 2
Fore
SplineSet
0 10 m 1,0,-1
 0 60 l 1,1,-1
 20 60 l 1,2,-1
 20 10 l 1,3,-1
 40 10 l 1,4,-1
 40 60 l 1,5,-1
 60 60 l 1,6,-1
 60 -20 l 1,7,-1
 50 -20 l 1,8,-1
 50 -30 l 1,9,-1
 10 -30 l 1,10,-1
 10 -20 l 1,11,-1
 40 -20 l 1,12,-1
 40 0 l 1,13,-1
 10 0 l 1,14,-1
 10 10 l 1,15,-1
 0 10 l 1,0,-1
EndSplineSet
EndChar

StartChar: z
Encoding: 122 122 106
Width: 70
VWidth: 140
Flags: W
LayerCount: 2
Fore
SplineSet
0 20 m 1,0,-1
 10 20 l 1,1,-1
 10 30 l 1,2,-1
 20 30 l 1,3,-1
 20 40 l 1,4,-1
 30 40 l 1,5,-1
 30 50 l 1,6,-1
 0 50 l 1,7,-1
 0 60 l 1,8,-1
 60 60 l 1,9,-1
 60 50 l 1,10,-1
 50 50 l 1,11,-1
 50 40 l 1,12,-1
 40 40 l 1,13,-1
 40 30 l 1,14,-1
 30 30 l 1,15,-1
 30 20 l 1,16,-1
 20 20 l 1,17,-1
 20 10 l 1,18,-1
 60 10 l 1,19,-1
 60 0 l 1,20,-1
 0 0 l 1,21,-1
 0 20 l 1,0,-1
EndSplineSet
EndChar

StartChar: braceleft
Encoding: 123 123 107
Width: 70
VWidth: 140
Flags: W
LayerCount: 2
Fore
SplineSet
0 30 m 1,0,-1
 0 40 l 1,1,-1
 20 40 l 1,2,-1
 20 80 l 1,3,-1
 30 80 l 1,4,-1
 30 90 l 1,5,-1
 60 90 l 1,6,-1
 60 80 l 1,7,-1
 40 80 l 1,8,-1
 40 40 l 1,9,-1
 30 40 l 1,10,-1
 30 30 l 1,11,-1
 40 30 l 1,12,-1
 40 -10 l 1,13,-1
 60 -10 l 1,14,-1
 60 -20 l 1,15,-1
 30 -20 l 1,16,-1
 30 -10 l 1,17,-1
 20 -10 l 1,18,-1
 20 30 l 1,19,-1
 0 30 l 1,0,-1
EndSplineSet
EndChar

StartChar: bar
Encoding: 124 124 108
Width: 70
VWidth: 140
Flags: W
LayerCount: 2
Fore
SplineSet
40 -10 m 1,0,-1
 20 -10 l 1,1,-1
 20 90 l 1,2,-1
 40 90 l 1,3,-1
 40 -10 l 1,0,-1
EndSplineSet
EndChar

StartChar: braceright
Encoding: 125 125 109
Width: 70
VWidth: 140
Flags: W
LayerCount: 2
Fore
SplineSet
0 -20 m 1,0,-1
 0 -10 l 1,1,-1
 20 -10 l 1,2,-1
 20 30 l 1,3,-1
 30 30 l 1,4,-1
 30 40 l 1,5,-1
 20 40 l 1,6,-1
 20 80 l 1,7,-1
 0 80 l 1,8,-1
 0 90 l 1,9,-1
 30 90 l 1,10,-1
 30 80 l 1,11,-1
 40 80 l 1,12,-1
 40 40 l 1,13,-1
 60 40 l 1,14,-1
 60 30 l 1,15,-1
 40 30 l 1,16,-1
 40 -10 l 1,17,-1
 30 -10 l 1,18,-1
 30 -20 l 1,19,-1
 0 -20 l 1,0,-1
EndSplineSet
EndChar

StartChar: asciitilde
Encoding: 126 126 110
Width: 70
VWidth: 140
Flags: W
LayerCount: 2
Fore
SplineSet
0 50 m 1,0,-1
 0 70 l 1,1,-1
 10 70 l 1,2,-1
 10 80 l 1,3,-1
 30 80 l 1,4,-1
 30 70 l 1,5,-1
 50 70 l 1,6,-1
 50 80 l 1,7,-1
 60 80 l 1,8,-1
 60 60 l 1,9,-1
 50 60 l 1,10,-1
 50 50 l 1,11,-1
 30 50 l 1,12,-1
 30 60 l 1,13,-1
 10 60 l 1,14,-1
 10 50 l 1,15,-1
 0 50 l 1,0,-1
EndSplineSet
EndChar

StartChar: exclamdown
Encoding: 161 161 112
Width: 70
VWidth: 140
Flags: W
LayerCount: 2
Fore
SplineSet
10 10 m 1,0,-1
 20 10 l 1,1,-1
 20 30 l 1,2,-1
 40 30 l 1,3,-1
 40 10 l 1,4,-1
 50 10 l 1,5,-1
 50 -10 l 1,6,-1
 40 -10 l 1,7,-1
 40 -20 l 1,8,-1
 20 -20 l 1,9,-1
 20 -10 l 1,10,-1
 10 -10 l 1,11,-1
 10 10 l 1,0,-1
20 50 m 1,12,-1
 20 70 l 1,13,-1
 40 70 l 1,14,-1
 40 50 l 1,15,-1
 20 50 l 1,12,-1
EndSplineSet
EndChar

StartChar: cent
Encoding: 162 162 113
Width: 70
VWidth: 140
Flags: W
LayerCount: 2
Fore
SplineSet
116 40 m 1052,0,-1
0 20 m 1,1,-1
 0 60 l 1,2,-1
 10 60 l 1,3,-1
 10 70 l 1,4,-1
 30 70 l 1,5,-1
 30 90 l 1,6,-1
 50 90 l 1,7,-1
 50 70 l 1,8,-1
 60 70 l 1,9,-1
 60 60 l 1,10,-1
 20 60 l 1,11,-1
 20 20 l 1,12,-1
 60 20 l 1,13,-1
 60 10 l 1,14,-1
 40 10 l 1,15,-1
 40 -10 l 1,16,-1
 20 -10 l 1,17,-1
 20 10 l 1,18,-1
 10 10 l 1,19,-1
 10 20 l 1,20,-1
 0 20 l 1,1,-1
EndSplineSet
EndChar

StartChar: sterling
Encoding: 163 163 114
Width: 70
VWidth: 140
Flags: W
LayerCount: 2
Fore
SplineSet
0 0 m 1,0,-1
 0 10 l 1,1,-1
 10 10 l 1,2,-1
 10 30 l 1,3,-1
 0 30 l 1,4,-1
 0 40 l 1,5,-1
 10 40 l 1,6,-1
 10 70 l 1,7,-1
 20 70 l 1,8,-1
 20 80 l 1,9,-1
 50 80 l 1,10,-1
 50 70 l 1,11,-1
 60 70 l 1,12,-1
 60 60 l 1,13,-1
 40 60 l 1,14,-1
 40 70 l 1,15,-1
 30 70 l 1,16,-1
 30 40 l 1,17,-1
 50 40 l 1,18,-1
 50 30 l 1,19,-1
 30 30 l 1,20,-1
 30 10 l 1,21,-1
 60 10 l 1,22,-1
 60 0 l 1,23,-1
 0 0 l 1,0,-1
EndSplineSet
EndChar

StartChar: currency
Encoding: 164 164 115
Width: 70
VWidth: 140
Flags: W
LayerCount: 2
Fore
SplineSet
0 10 m 1,0,-1
 0 20 l 1,1,-1
 10 20 l 1,2,-1
 10 30 l 1,3,-1
 0 30 l 1,4,-1
 0 50 l 1,5,-1
 10 50 l 1,6,-1
 10 60 l 1,7,-1
 0 60 l 1,8,-1
 0 70 l 1,9,-1
 10 70 l 1,10,-1
 10 60 l 1,11,-1
 20 60 l 1,12,-1
 20 70 l 1,13,-1
 40 70 l 1,14,-1
 40 60 l 1,15,-1
 50 60 l 1,16,-1
 50 70 l 1,17,-1
 60 70 l 1,18,-1
 60 60 l 1,19,-1
 50 60 l 1,20,-1
 50 50 l 1,21,-1
 60 50 l 1,22,-1
 60 30 l 1,23,-1
 50 30 l 1,24,-1
 50 20 l 1,25,-1
 60 20 l 1,26,-1
 60 10 l 1,27,-1
 50 10 l 1,28,-1
 50 20 l 1,29,-1
 40 20 l 1,30,-1
 40 10 l 1,31,-1
 20 10 l 1,32,-1
 20 20 l 1,33,-1
 10 20 l 1,34,-1
 10 10 l 1,35,-1
 0 10 l 1,0,-1
20 30 m 1,36,-1
 30 30 l 1,37,-1
 30 20 l 1,38,-1
 40 20 l 1,39,-1
 40 30 l 1,40,-1
 50 30 l 1,41,-1
 50 50 l 1,42,-1
 40 50 l 1,43,-1
 40 60 l 1,44,-1
 30 60 l 1,45,-1
 30 50 l 1,46,-1
 20 50 l 1,47,-1
 20 30 l 1,36,-1
EndSplineSet
EndChar

StartChar: yen
Encoding: 165 165 116
Width: 70
VWidth: 140
Flags: W
LayerCount: 2
Fore
SplineSet
0 20 m 1,0,-1
 0 30 l 1,1,-1
 20 30 l 1,2,-1
 20 40 l 1,3,-1
 0 40 l 1,4,-1
 0 50 l 1,5,-1
 20 50 l 1,6,-1
 20 60 l 1,7,-1
 10 60 l 1,8,-1
 10 70 l 1,9,-1
 0 70 l 1,10,-1
 0 80 l 1,11,-1
 20 80 l 1,12,-1
 20 70 l 1,13,-1
 40 70 l 1,14,-1
 40 80 l 1,15,-1
 60 80 l 1,16,-1
 60 70 l 1,17,-1
 50 70 l 1,18,-1
 50 60 l 1,19,-1
 40 60 l 1,20,-1
 40 50 l 1,21,-1
 60 50 l 1,22,-1
 60 40 l 1,23,-1
 40 40 l 1,24,-1
 40 30 l 1,25,-1
 60 30 l 1,26,-1
 60 20 l 1,27,-1
 40 20 l 1,28,-1
 40 0 l 1,29,-1
 20 0 l 1,30,-1
 20 20 l 1,31,-1
 0 20 l 1,0,-1
EndSplineSet
EndChar

StartChar: brokenbar
Encoding: 166 166 117
Width: 70
VWidth: 140
Flags: W
LayerCount: 2
Fore
SplineSet
40 -10 m 1,0,-1
 20 -10 l 1,1,-1
 20 30 l 1,2,-1
 40 30 l 1,3,-1
 40 -10 l 1,0,-1
40 40 m 1,4,-1
 20 40 l 1,5,-1
 20 80 l 1,6,-1
 40 80 l 1,7,-1
 40 40 l 1,4,-1
EndSplineSet
EndChar

StartChar: dieresis
Encoding: 168 168 118
Width: 70
VWidth: 140
Flags: W
LayerCount: 2
Fore
SplineSet
0 70 m 1,0,-1
 0 90 l 1,1,-1
 20 90 l 1,2,-1
 20 70 l 1,3,-1
 0 70 l 1,0,-1
50 70 m 1,4,-1
 30 70 l 1,5,-1
 30 90 l 1,6,-1
 50 90 l 1,7,-1
 50 70 l 1,4,-1
EndSplineSet
EndChar

StartChar: copyright
Encoding: 169 169 119
Width: 70
VWidth: 140
Flags: W
LayerCount: 2
Fore
SplineSet
0 10 m 1,0,-1
 0 70 l 1,1,-1
 10 70 l 1,2,-1
 10 10 l 1,3,-1
 0 10 l 1,0,-1
10 10 m 1,4,-1
 50 10 l 1,5,-1
 50 0 l 1,6,-1
 10 0 l 1,7,-1
 10 10 l 1,4,-1
10 70 m 1,8,-1
 10 80 l 1,9,-1
 50 80 l 1,10,-1
 50 70 l 1,11,-1
 10 70 l 1,8,-1
20 50 m 1,12,-1
 30 50 l 1,13,-1
 30 30 l 1,14,-1
 20 30 l 1,15,-1
 20 50 l 1,12,-1
30 20 m 1,16,-1
 30 30 l 1,17,-1
 40 30 l 1,18,-1
 40 20 l 1,19,-1
 30 20 l 1,16,-1
30 50 m 1,20,-1
 30 60 l 1,21,-1
 40 60 l 1,22,-1
 40 50 l 1,23,-1
 30 50 l 1,20,-1
50 10 m 1,24,-1
 50 70 l 1,25,-1
 60 70 l 1,26,-1
 60 10 l 1,27,-1
 50 10 l 1,24,-1
EndSplineSet
EndChar

StartChar: guillemotleft
Encoding: 171 171 120
Width: 70
VWidth: 140
Flags: W
LayerCount: 2
Fore
SplineSet
0 30 m 1,0,-1
 0 40 l 1,1,-1
 10 40 l 1,2,-1
 10 50 l 1,3,-1
 20 50 l 1,4,-1
 20 60 l 1,5,-1
 30 60 l 1,6,-1
 30 40 l 1,7,-1
 20 40 l 1,8,-1
 20 30 l 1,9,-1
 30 30 l 1,10,-1
 30 10 l 1,11,-1
 20 10 l 1,12,-1
 20 20 l 1,13,-1
 10 20 l 1,14,-1
 10 30 l 1,15,-1
 0 30 l 1,0,-1
40 30 m 1,16,-1
 30 30 l 1,17,-1
 30 40 l 1,18,-1
 40 40 l 1,19,-1
 40 50 l 1,20,-1
 50 50 l 1,21,-1
 50 60 l 1,22,-1
 60 60 l 1,23,-1
 60 40 l 1,24,-1
 50 40 l 1,25,-1
 50 30 l 1,26,-1
 60 30 l 1,27,-1
 60 10 l 1,28,-1
 50 10 l 1,29,-1
 50 20 l 1,30,-1
 40 20 l 1,31,-1
 40 30 l 1,16,-1
EndSplineSet
EndChar

StartChar: hyphen
Encoding: 173 173 121
Width: 70
VWidth: 140
Flags: W
LayerCount: 2
Fore
SplineSet
0 30 m 1,0,-1
 0 40 l 1,1,-1
 60 40 l 1,2,-1
 60 30 l 1,3,-1
 0 30 l 1,0,-1
EndSplineSet
EndChar

StartChar: degree
Encoding: 176 176 122
Width: 70
VWidth: 140
Flags: W
LayerCount: 2
Fore
SplineSet
0 50 m 1,0,-1
 0 70 l 1,1,-1
 10 70 l 1,2,-1
 10 80 l 1,3,-1
 40 80 l 1,4,-1
 40 70 l 1,5,-1
 50 70 l 1,6,-1
 50 50 l 1,7,-1
 40 50 l 1,8,-1
 40 40 l 1,9,-1
 10 40 l 1,10,-1
 10 50 l 1,11,-1
 0 50 l 1,0,-1
20 50 m 1,12,-1
 30 50 l 1,13,-1
 30 70 l 1,14,-1
 20 70 l 1,15,-1
 20 50 l 1,12,-1
EndSplineSet
EndChar

StartChar: acute
Encoding: 180 180 123
Width: 70
VWidth: 140
Flags: W
LayerCount: 2
Fore
SplineSet
40 70 m 1,0,-1
 20 70 l 1,1,-1
 20 80 l 1,2,-1
 30 80 l 1,3,-1
 30 90 l 1,4,-1
 50 90 l 1,5,-1
 50 80 l 1,6,-1
 40 80 l 1,7,-1
 40 70 l 1,0,-1
EndSplineSet
EndChar

StartChar: cedilla
Encoding: 184 184 124
Width: 70
VWidth: 140
Flags: W
LayerCount: 2
Fore
SplineSet
40 -10 m 1,0,-1
 40 -20 l 1,1,-1
 10 -20 l 1,2,-1
 10 -10 l 1,3,-1
 30 -10 l 1,4,-1
 30 0 l 1,5,-1
 50 0 l 1,6,-1
 50 -10 l 1,7,-1
 40 -10 l 1,0,-1
EndSplineSet
EndChar

StartChar: guillemotright
Encoding: 187 187 125
Width: 70
VWidth: 140
Flags: W
LayerCount: 2
Fore
SplineSet
0 30 m 1,0,-1
 10 30 l 1,1,-1
 10 40 l 1,2,-1
 0 40 l 1,3,-1
 0 60 l 1,4,-1
 10 60 l 1,5,-1
 10 50 l 1,6,-1
 20 50 l 1,7,-1
 20 40 l 1,8,-1
 30 40 l 1,9,-1
 30 30 l 1,10,-1
 20 30 l 1,11,-1
 20 20 l 1,12,-1
 10 20 l 1,13,-1
 10 10 l 1,14,-1
 0 10 l 1,15,-1
 0 30 l 1,0,-1
40 30 m 1,16,-1
 40 40 l 1,17,-1
 30 40 l 1,18,-1
 30 60 l 1,19,-1
 40 60 l 1,20,-1
 40 50 l 1,21,-1
 50 50 l 1,22,-1
 50 40 l 1,23,-1
 60 40 l 1,24,-1
 60 30 l 1,25,-1
 50 30 l 1,26,-1
 50 20 l 1,27,-1
 40 20 l 1,28,-1
 40 10 l 1,29,-1
 30 10 l 1,30,-1
 30 30 l 1,31,-1
 40 30 l 1,16,-1
EndSplineSet
EndChar

StartChar: questiondown
Encoding: 191 191 126
Width: 70
VWidth: 140
Flags: W
LayerCount: 2
Fore
SplineSet
0 10 m 1,0,-1
 10 10 l 1,1,-1
 10 20 l 1,2,-1
 20 20 l 1,3,-1
 20 30 l 1,4,-1
 40 30 l 1,5,-1
 40 20 l 1,6,-1
 30 20 l 1,7,-1
 30 10 l 1,8,-1
 20 10 l 1,9,-1
 20 -10 l 1,10,-1
 50 -10 l 1,11,-1
 50 -20 l 1,12,-1
 10 -20 l 1,13,-1
 10 -10 l 1,14,-1
 0 -10 l 1,15,-1
 0 10 l 1,0,-1
20 50 m 1,16,-1
 20 70 l 1,17,-1
 40 70 l 1,18,-1
 40 50 l 1,19,-1
 20 50 l 1,16,-1
50 -10 m 1,20,-1
 50 0 l 1,21,-1
 60 0 l 1,22,-1
 60 -10 l 1,23,-1
 50 -10 l 1,20,-1
EndSplineSet
EndChar

StartChar: Agrave
Encoding: 192 192 127
Width: 70
VWidth: 140
Flags: W
LayerCount: 2
Fore
SplineSet
0 0 m 1,0,-1
 0 50 l 1,1,-1
 10 50 l 1,2,-1
 10 60 l 1,3,-1
 20 60 l 1,4,-1
 20 70 l 1,5,-1
 40 70 l 1,6,-1
 40 60 l 1,7,-1
 50 60 l 1,8,-1
 50 50 l 1,9,-1
 60 50 l 1,10,-1
 60 0 l 1,11,-1
 40 0 l 1,12,-1
 40 20 l 1,13,-1
 20 20 l 1,14,-1
 20 0 l 1,15,-1
 0 0 l 1,0,-1
20 50 m 1,16,-1
 20 30 l 1,17,-1
 40 30 l 1,18,-1
 40 50 l 1,19,-1
 20 50 l 1,16,-1
20 90 m 1,20,-1
 10 90 l 1,21,-1
 10 100 l 1,22,-1
 30 100 l 1,23,-1
 30 90 l 1,24,-1
 40 90 l 1,25,-1
 40 80 l 1,26,-1
 20 80 l 1,27,-1
 20 90 l 1,20,-1
EndSplineSet
EndChar

StartChar: Aacute
Encoding: 193 193 128
Width: 70
VWidth: 140
Flags: W
LayerCount: 2
Fore
SplineSet
0 0 m 1,0,-1
 0 50 l 1,1,-1
 10 50 l 1,2,-1
 10 60 l 1,3,-1
 20 60 l 1,4,-1
 20 70 l 1,5,-1
 40 70 l 1,6,-1
 40 60 l 1,7,-1
 50 60 l 1,8,-1
 50 50 l 1,9,-1
 60 50 l 1,10,-1
 60 0 l 1,11,-1
 40 0 l 1,12,-1
 40 20 l 1,13,-1
 20 20 l 1,14,-1
 20 0 l 1,15,-1
 0 0 l 1,0,-1
20 50 m 1,16,-1
 20 30 l 1,17,-1
 40 30 l 1,18,-1
 40 50 l 1,19,-1
 20 50 l 1,16,-1
20 80 m 1,20,-1
 20 90 l 1,21,-1
 30 90 l 1,22,-1
 30 100 l 1,23,-1
 50 100 l 1,24,-1
 50 90 l 1,25,-1
 40 90 l 1,26,-1
 40 80 l 1,27,-1
 20 80 l 1,20,-1
EndSplineSet
EndChar

StartChar: Acircumflex
Encoding: 194 194 129
Width: 70
VWidth: 140
Flags: W
LayerCount: 2
Fore
SplineSet
0 0 m 1,0,-1
 0 50 l 1,1,-1
 10 50 l 1,2,-1
 10 60 l 1,3,-1
 20 60 l 1,4,-1
 20 70 l 1,5,-1
 40 70 l 1,6,-1
 40 60 l 1,7,-1
 50 60 l 1,8,-1
 50 50 l 1,9,-1
 60 50 l 1,10,-1
 60 0 l 1,11,-1
 40 0 l 1,12,-1
 40 20 l 1,13,-1
 20 20 l 1,14,-1
 20 0 l 1,15,-1
 0 0 l 1,0,-1
10 80 m 1,16,-1
 10 90 l 1,17,-1
 20 90 l 1,18,-1
 20 100 l 1,19,-1
 40 100 l 1,20,-1
 40 90 l 1,21,-1
 50 90 l 1,22,-1
 50 80 l 1,23,-1
 40 80 l 1,24,-1
 40 90 l 1,25,-1
 30 90 l 1,26,-1
 30 80 l 1,27,-1
 10 80 l 1,16,-1
20 50 m 1,28,-1
 20 30 l 1,29,-1
 40 30 l 1,30,-1
 40 50 l 1,31,-1
 20 50 l 1,28,-1
EndSplineSet
EndChar

StartChar: Atilde
Encoding: 195 195 130
Width: 70
VWidth: 140
Flags: W
LayerCount: 2
Fore
SplineSet
0 0 m 1,0,-1
 0 50 l 1,1,-1
 10 50 l 1,2,-1
 10 60 l 1,3,-1
 20 60 l 1,4,-1
 20 70 l 1,5,-1
 40 70 l 1,6,-1
 40 60 l 1,7,-1
 50 60 l 1,8,-1
 50 50 l 1,9,-1
 60 50 l 1,10,-1
 60 0 l 1,11,-1
 40 0 l 1,12,-1
 40 20 l 1,13,-1
 20 20 l 1,14,-1
 20 0 l 1,15,-1
 0 0 l 1,0,-1
20 50 m 1,16,-1
 20 30 l 1,17,-1
 40 30 l 1,18,-1
 40 50 l 1,19,-1
 20 50 l 1,16,-1
30 90 m 5,20,-1
 20 90 l 5,21,-1
 20 80 l 5,22,-1
 0 80 l 5,23,-1
 0 90 l 5,24,-1
 10 90 l 5,25,-1
 10 100 l 5,26,-1
 40 100 l 5,27,-1
 40 90 l 5,28,-1
 50 90 l 5,29,-1
 50 80 l 5,30,-1
 30 80 l 5,31,-1
 30 90 l 5,20,-1
60 100 m 5,32,-1
 60 90 l 5,33,-1
 50 90 l 5,34,-1
 50 100 l 5,35,-1
 60 100 l 5,32,-1
EndSplineSet
EndChar

StartChar: Adieresis
Encoding: 196 196 131
Width: 70
VWidth: 140
Flags: W
LayerCount: 2
Fore
SplineSet
0 0 m 1,0,-1
 0 50 l 1,1,-1
 10 50 l 1,2,-1
 10 60 l 1,3,-1
 20 60 l 1,4,-1
 20 70 l 1,5,-1
 40 70 l 1,6,-1
 40 60 l 1,7,-1
 50 60 l 1,8,-1
 50 50 l 1,9,-1
 60 50 l 1,10,-1
 60 0 l 1,11,-1
 40 0 l 1,12,-1
 40 20 l 1,13,-1
 20 20 l 1,14,-1
 20 0 l 1,15,-1
 0 0 l 1,0,-1
0 90 m 1,16,-1
 20 90 l 1,17,-1
 20 80 l 1,18,-1
 0 80 l 1,19,-1
 0 90 l 1,16,-1
20 50 m 1,20,-1
 20 30 l 1,21,-1
 40 30 l 1,22,-1
 40 50 l 1,23,-1
 20 50 l 1,20,-1
40 90 m 1,24,-1
 60 90 l 1,25,-1
 60 80 l 1,26,-1
 40 80 l 1,27,-1
 40 90 l 1,24,-1
EndSplineSet
EndChar

StartChar: Aring
Encoding: 197 197 132
Width: 70
VWidth: 140
Flags: W
LayerCount: 2
Fore
SplineSet
0 0 m 1,0,-1
 0 60 l 1,1,-1
 10 60 l 1,2,-1
 10 70 l 1,3,-1
 20 70 l 1,4,-1
 20 80 l 1,5,-1
 10 80 l 1,6,-1
 10 90 l 1,7,-1
 20 90 l 1,8,-1
 20 100 l 1,9,-1
 40 100 l 1,10,-1
 40 90 l 1,11,-1
 50 90 l 1,12,-1
 50 80 l 1,13,-1
 40 80 l 1,14,-1
 40 70 l 1,15,-1
 50 70 l 1,16,-1
 50 60 l 1,17,-1
 60 60 l 1,18,-1
 60 0 l 1,19,-1
 40 0 l 1,20,-1
 40 30 l 1,21,-1
 20 30 l 1,22,-1
 20 0 l 1,23,-1
 0 0 l 1,0,-1
20 60 m 1,24,-1
 20 40 l 1,25,-1
 40 40 l 1,26,-1
 40 60 l 1,27,-1
 20 60 l 1,24,-1
30 90 m 1,28,-1
 30 80 l 1,29,-1
 40 80 l 1,30,-1
 40 90 l 1,31,-1
 30 90 l 1,28,-1
EndSplineSet
EndChar

StartChar: AE
Encoding: 198 198 133
Width: 70
VWidth: 140
Flags: W
LayerCount: 2
Fore
SplineSet
0 0 m 1,0,-1
 0 60 l 1,1,-1
 10 60 l 1,2,-1
 10 70 l 1,3,-1
 20 70 l 1,4,-1
 20 80 l 1,5,-1
 60 80 l 1,6,-1
 60 70 l 1,7,-1
 50 70 l 1,8,-1
 50 40 l 1,9,-1
 60 40 l 1,10,-1
 60 30 l 1,11,-1
 50 30 l 1,12,-1
 50 10 l 1,13,-1
 60 10 l 1,14,-1
 60 0 l 1,15,-1
 30 0 l 1,16,-1
 30 30 l 1,17,-1
 20 30 l 1,18,-1
 20 0 l 1,19,-1
 0 0 l 1,0,-1
20 40 m 1,20,-1
 30 40 l 1,21,-1
 30 60 l 1,22,-1
 20 60 l 1,23,-1
 20 40 l 1,20,-1
EndSplineSet
EndChar

StartChar: Ccedilla
Encoding: 199 199 134
Width: 70
VWidth: 140
Flags: W
LayerCount: 2
Fore
SplineSet
0 20 m 1,0,-1
 0 60 l 1,1,-1
 10 60 l 1,2,-1
 10 70 l 1,3,-1
 20 70 l 1,4,-1
 20 80 l 1,5,-1
 60 80 l 1,6,-1
 60 70 l 1,7,-1
 30 70 l 1,8,-1
 30 60 l 1,9,-1
 20 60 l 1,10,-1
 20 20 l 1,11,-1
 30 20 l 1,12,-1
 30 10 l 1,13,-1
 60 10 l 1,14,-1
 60 0 l 1,15,-1
 50 0 l 1,16,-1
 50 -10 l 1,17,-1
 40 -10 l 1,18,-1
 40 -20 l 1,19,-1
 10 -20 l 1,20,-1
 10 -10 l 1,21,-1
 30 -10 l 1,22,-1
 30 0 l 1,23,-1
 20 0 l 1,24,-1
 20 10 l 1,25,-1
 10 10 l 1,26,-1
 10 20 l 1,27,-1
 0 20 l 1,0,-1
EndSplineSet
EndChar

StartChar: Egrave
Encoding: 200 200 135
Width: 70
VWidth: 140
Flags: W
LayerCount: 2
Fore
SplineSet
0 0 m 1,0,-1
 0 70 l 1,1,-1
 60 70 l 1,2,-1
 60 60 l 1,3,-1
 20 60 l 1,4,-1
 20 40 l 1,5,-1
 50 40 l 1,6,-1
 50 30 l 1,7,-1
 20 30 l 1,8,-1
 20 10 l 1,9,-1
 60 10 l 1,10,-1
 60 0 l 1,11,-1
 0 0 l 1,0,-1
10 90 m 1,12,-1
 10 100 l 1,13,-1
 30 100 l 1,14,-1
 30 90 l 1,15,-1
 40 90 l 1,16,-1
 40 80 l 1,17,-1
 20 80 l 1,18,-1
 20 90 l 1,19,-1
 10 90 l 1,12,-1
EndSplineSet
EndChar

StartChar: Eacute
Encoding: 201 201 136
Width: 70
VWidth: 140
Flags: W
LayerCount: 2
Fore
SplineSet
0 0 m 1,0,-1
 0 70 l 1,1,-1
 60 70 l 1,2,-1
 60 60 l 1,3,-1
 20 60 l 1,4,-1
 20 40 l 1,5,-1
 50 40 l 1,6,-1
 50 30 l 1,7,-1
 20 30 l 1,8,-1
 20 10 l 1,9,-1
 60 10 l 1,10,-1
 60 0 l 1,11,-1
 0 0 l 1,0,-1
20 80 m 1,12,-1
 20 90 l 1,13,-1
 30 90 l 1,14,-1
 30 100 l 1,15,-1
 50 100 l 1,16,-1
 50 90 l 1,17,-1
 40 90 l 1,18,-1
 40 80 l 1,19,-1
 20 80 l 1,12,-1
EndSplineSet
EndChar

StartChar: Ecircumflex
Encoding: 202 202 137
Width: 70
VWidth: 140
Flags: W
LayerCount: 2
Fore
SplineSet
10 80 m 1,0,-1
 10 90 l 1,1,-1
 20 90 l 1,2,-1
 20 100 l 1,3,-1
 40 100 l 1,4,-1
 40 90 l 1,5,-1
 50 90 l 1,6,-1
 50 80 l 1,7,-1
 40 80 l 1,8,-1
 40 90 l 1,9,-1
 30 90 l 1,10,-1
 30 80 l 1,11,-1
 10 80 l 1,0,-1
0 0 m 1,12,-1
 0 70 l 1,13,-1
 60 70 l 1,14,-1
 60 60 l 1,15,-1
 20 60 l 1,16,-1
 20 40 l 1,17,-1
 50 40 l 1,18,-1
 50 30 l 1,19,-1
 20 30 l 1,20,-1
 20 10 l 1,21,-1
 60 10 l 1,22,-1
 60 0 l 1,23,-1
 0 0 l 1,12,-1
EndSplineSet
EndChar

StartChar: Edieresis
Encoding: 203 203 138
Width: 70
VWidth: 140
Flags: W
LayerCount: 2
Fore
SplineSet
0 90 m 1,0,-1
 20 90 l 1,1,-1
 20 80 l 1,2,-1
 0 80 l 1,3,-1
 0 90 l 1,0,-1
40 90 m 1,4,-1
 60 90 l 1,5,-1
 60 80 l 1,6,-1
 40 80 l 1,7,-1
 40 90 l 1,4,-1
0 0 m 1,8,-1
 0 70 l 1,9,-1
 60 70 l 1,10,-1
 60 60 l 1,11,-1
 20 60 l 1,12,-1
 20 40 l 1,13,-1
 50 40 l 1,14,-1
 50 30 l 1,15,-1
 20 30 l 1,16,-1
 20 10 l 1,17,-1
 60 10 l 1,18,-1
 60 0 l 1,19,-1
 0 0 l 1,8,-1
EndSplineSet
EndChar

StartChar: Igrave
Encoding: 204 204 139
Width: 70
VWidth: 140
Flags: W
LayerCount: 2
Fore
SplineSet
0 0 m 1,0,-1
 0 10 l 1,1,-1
 20 10 l 1,2,-1
 20 60 l 1,3,-1
 0 60 l 1,4,-1
 0 70 l 1,5,-1
 60 70 l 1,6,-1
 60 60 l 1,7,-1
 40 60 l 1,8,-1
 40 10 l 1,9,-1
 60 10 l 1,10,-1
 60 0 l 1,11,-1
 0 0 l 1,0,-1
10 90 m 1,12,-1
 10 100 l 1,13,-1
 30 100 l 1,14,-1
 30 90 l 1,15,-1
 40 90 l 1,16,-1
 40 80 l 1,17,-1
 20 80 l 1,18,-1
 20 90 l 1,19,-1
 10 90 l 1,12,-1
EndSplineSet
EndChar

StartChar: Iacute
Encoding: 205 205 140
Width: 70
VWidth: 140
Flags: W
LayerCount: 2
Fore
SplineSet
0 0 m 1,0,-1
 0 10 l 1,1,-1
 20 10 l 1,2,-1
 20 60 l 1,3,-1
 0 60 l 1,4,-1
 0 70 l 1,5,-1
 60 70 l 1,6,-1
 60 60 l 1,7,-1
 40 60 l 1,8,-1
 40 10 l 1,9,-1
 60 10 l 1,10,-1
 60 0 l 1,11,-1
 0 0 l 1,0,-1
20 80 m 1,12,-1
 20 90 l 1,13,-1
 30 90 l 1,14,-1
 30 100 l 1,15,-1
 50 100 l 1,16,-1
 50 90 l 1,17,-1
 40 90 l 1,18,-1
 40 80 l 1,19,-1
 20 80 l 1,12,-1
EndSplineSet
EndChar

StartChar: Icircumflex
Encoding: 206 206 141
Width: 70
VWidth: 140
Flags: W
LayerCount: 2
Fore
SplineSet
10 80 m 1,0,-1
 10 90 l 1,1,-1
 20 90 l 1,2,-1
 20 100 l 1,3,-1
 40 100 l 1,4,-1
 40 90 l 1,5,-1
 50 90 l 1,6,-1
 50 80 l 1,7,-1
 40 80 l 1,8,-1
 40 90 l 1,9,-1
 30 90 l 1,10,-1
 30 80 l 1,11,-1
 10 80 l 1,0,-1
0 0 m 1,12,-1
 0 10 l 1,13,-1
 20 10 l 1,14,-1
 20 60 l 1,15,-1
 0 60 l 1,16,-1
 0 70 l 1,17,-1
 60 70 l 1,18,-1
 60 60 l 1,19,-1
 40 60 l 1,20,-1
 40 10 l 1,21,-1
 60 10 l 1,22,-1
 60 0 l 1,23,-1
 0 0 l 1,12,-1
EndSplineSet
EndChar

StartChar: Idieresis
Encoding: 207 207 142
Width: 70
VWidth: 140
Flags: W
LayerCount: 2
Fore
SplineSet
0 90 m 1,0,-1
 20 90 l 1,1,-1
 20 80 l 1,2,-1
 0 80 l 1,3,-1
 0 90 l 1,0,-1
40 90 m 1,4,-1
 60 90 l 1,5,-1
 60 80 l 1,6,-1
 40 80 l 1,7,-1
 40 90 l 1,4,-1
0 0 m 1,8,-1
 0 10 l 1,9,-1
 20 10 l 1,10,-1
 20 60 l 1,11,-1
 0 60 l 1,12,-1
 0 70 l 1,13,-1
 60 70 l 1,14,-1
 60 60 l 1,15,-1
 40 60 l 1,16,-1
 40 10 l 1,17,-1
 60 10 l 1,18,-1
 60 0 l 1,19,-1
 0 0 l 1,8,-1
EndSplineSet
EndChar

StartChar: Eth
Encoding: 208 208 143
Width: 70
VWidth: 140
Flags: W
LayerCount: 2
Fore
SplineSet
0 0 m 1,0,-1
 0 10 l 1,1,-1
 10 10 l 1,2,-1
 10 40 l 1,3,-1
 0 40 l 1,4,-1
 0 50 l 1,5,-1
 10 50 l 1,6,-1
 10 70 l 1,7,-1
 0 70 l 1,8,-1
 0 80 l 1,9,-1
 50 80 l 1,10,-1
 50 70 l 1,11,-1
 60 70 l 1,12,-1
 60 20 l 1,13,-1
 50 20 l 1,14,-1
 50 10 l 1,15,-1
 40 10 l 1,16,-1
 40 70 l 1,17,-1
 30 70 l 1,18,-1
 30 10 l 1,19,-1
 40 10 l 1,20,-1
 40 0 l 1,21,-1
 0 0 l 1,0,-1
EndSplineSet
EndChar

StartChar: Ntilde
Encoding: 209 209 144
Width: 70
VWidth: 140
Flags: W
LayerCount: 2
Fore
SplineSet
30 90 m 1,0,-1
 20 90 l 1,1,-1
 20 80 l 1,2,-1
 0 80 l 1,3,-1
 0 90 l 1,4,-1
 10 90 l 1,5,-1
 10 100 l 1,6,-1
 40 100 l 1,7,-1
 40 90 l 1,8,-1
 50 90 l 1,9,-1
 50 80 l 1,10,-1
 30 80 l 1,11,-1
 30 90 l 1,0,-1
60 100 m 1,12,-1
 60 90 l 1,13,-1
 50 90 l 1,14,-1
 50 100 l 1,15,-1
 60 100 l 1,12,-1
0 0 m 1,16,-1
 0 70 l 1,17,-1
 20 70 l 1,18,-1
 20 60 l 1,19,-1
 30 60 l 1,20,-1
 30 50 l 1,21,-1
 40 50 l 1,22,-1
 40 70 l 1,23,-1
 60 70 l 1,24,-1
 60 0 l 1,25,-1
 40 0 l 1,26,-1
 40 30 l 1,27,-1
 30 30 l 1,28,-1
 30 40 l 1,29,-1
 20 40 l 1,30,-1
 20 0 l 1,31,-1
 0 0 l 1,16,-1
EndSplineSet
EndChar

StartChar: Ograve
Encoding: 210 210 145
Width: 70
VWidth: 140
Flags: W
LayerCount: 2
Fore
SplineSet
0 10 m 1,0,-1
 0 60 l 1,1,-1
 10 60 l 1,2,-1
 10 70 l 1,3,-1
 50 70 l 1,4,-1
 50 60 l 1,5,-1
 60 60 l 1,6,-1
 60 10 l 1,7,-1
 50 10 l 1,8,-1
 50 0 l 1,9,-1
 10 0 l 1,10,-1
 10 10 l 1,11,-1
 0 10 l 1,0,-1
10 90 m 1,12,-1
 10 100 l 1,13,-1
 30 100 l 1,14,-1
 30 90 l 1,15,-1
 40 90 l 1,16,-1
 40 80 l 1,17,-1
 20 80 l 1,18,-1
 20 90 l 1,19,-1
 10 90 l 1,12,-1
20 10 m 1,20,-1
 40 10 l 1,21,-1
 40 60 l 1,22,-1
 20 60 l 1,23,-1
 20 10 l 1,20,-1
EndSplineSet
EndChar

StartChar: Oacute
Encoding: 211 211 146
Width: 70
VWidth: 140
Flags: W
LayerCount: 2
Fore
SplineSet
0 10 m 1,0,-1
 0 60 l 1,1,-1
 10 60 l 1,2,-1
 10 70 l 1,3,-1
 50 70 l 1,4,-1
 50 60 l 1,5,-1
 60 60 l 1,6,-1
 60 10 l 1,7,-1
 50 10 l 1,8,-1
 50 0 l 1,9,-1
 10 0 l 1,10,-1
 10 10 l 1,11,-1
 0 10 l 1,0,-1
20 10 m 1,12,-1
 40 10 l 1,13,-1
 40 60 l 1,14,-1
 20 60 l 1,15,-1
 20 10 l 1,12,-1
20 80 m 1,16,-1
 20 90 l 1,17,-1
 30 90 l 1,18,-1
 30 100 l 1,19,-1
 50 100 l 1,20,-1
 50 90 l 1,21,-1
 40 90 l 1,22,-1
 40 80 l 1,23,-1
 20 80 l 1,16,-1
EndSplineSet
EndChar

StartChar: Ocircumflex
Encoding: 212 212 147
Width: 70
VWidth: 140
Flags: W
LayerCount: 2
Fore
SplineSet
10 80 m 1,0,-1
 10 90 l 1,1,-1
 20 90 l 1,2,-1
 20 100 l 1,3,-1
 40 100 l 1,4,-1
 40 90 l 1,5,-1
 50 90 l 1,6,-1
 50 80 l 1,7,-1
 40 80 l 1,8,-1
 40 90 l 1,9,-1
 30 90 l 1,10,-1
 30 80 l 1,11,-1
 10 80 l 1,0,-1
0 10 m 1,12,-1
 0 60 l 1,13,-1
 10 60 l 1,14,-1
 10 70 l 1,15,-1
 50 70 l 1,16,-1
 50 60 l 1,17,-1
 60 60 l 1,18,-1
 60 10 l 1,19,-1
 50 10 l 1,20,-1
 50 0 l 1,21,-1
 10 0 l 1,22,-1
 10 10 l 1,23,-1
 0 10 l 1,12,-1
20 10 m 1,24,-1
 40 10 l 1,25,-1
 40 60 l 1,26,-1
 20 60 l 1,27,-1
 20 10 l 1,24,-1
EndSplineSet
EndChar

StartChar: Otilde
Encoding: 213 213 148
Width: 70
VWidth: 140
Flags: W
LayerCount: 2
Fore
SplineSet
30 90 m 1,0,-1
 20 90 l 1,1,-1
 20 80 l 1,2,-1
 0 80 l 1,3,-1
 0 90 l 1,4,-1
 10 90 l 1,5,-1
 10 100 l 1,6,-1
 40 100 l 1,7,-1
 40 90 l 1,8,-1
 50 90 l 1,9,-1
 50 80 l 1,10,-1
 30 80 l 1,11,-1
 30 90 l 1,0,-1
60 100 m 1,12,-1
 60 90 l 1,13,-1
 50 90 l 1,14,-1
 50 100 l 1,15,-1
 60 100 l 1,12,-1
0 10 m 1,16,-1
 0 60 l 1,17,-1
 10 60 l 1,18,-1
 10 70 l 1,19,-1
 50 70 l 1,20,-1
 50 60 l 1,21,-1
 60 60 l 1,22,-1
 60 10 l 1,23,-1
 50 10 l 1,24,-1
 50 0 l 1,25,-1
 10 0 l 1,26,-1
 10 10 l 1,27,-1
 0 10 l 1,16,-1
20 10 m 1,28,-1
 40 10 l 1,29,-1
 40 60 l 1,30,-1
 20 60 l 1,31,-1
 20 10 l 1,28,-1
EndSplineSet
EndChar

StartChar: Odieresis
Encoding: 214 214 149
Width: 70
VWidth: 140
Flags: W
LayerCount: 2
Fore
SplineSet
0 90 m 5,0,-1
 20 90 l 5,1,-1
 20 80 l 5,2,-1
 0 80 l 5,3,-1
 0 90 l 5,0,-1
40 90 m 5,4,-1
 60 90 l 5,5,-1
 60 80 l 5,6,-1
 40 80 l 5,7,-1
 40 90 l 5,4,-1
0 10 m 1,8,-1
 0 60 l 1,9,-1
 10 60 l 1,10,-1
 10 70 l 1,11,-1
 50 70 l 1,12,-1
 50 60 l 1,13,-1
 60 60 l 1,14,-1
 60 10 l 1,15,-1
 50 10 l 1,16,-1
 50 0 l 1,17,-1
 10 0 l 1,18,-1
 10 10 l 1,19,-1
 0 10 l 1,8,-1
20 10 m 1,20,-1
 40 10 l 1,21,-1
 40 60 l 1,22,-1
 20 60 l 1,23,-1
 20 10 l 1,20,-1
EndSplineSet
EndChar

StartChar: multiply
Encoding: 215 215 150
Width: 70
VWidth: 140
Flags: W
LayerCount: 2
Fore
SplineSet
0 10 m 1,0,-1
 0 20 l 1,1,-1
 10 20 l 1,2,-1
 10 30 l 1,3,-1
 20 30 l 1,4,-1
 20 40 l 1,5,-1
 10 40 l 1,6,-1
 10 50 l 1,7,-1
 0 50 l 1,8,-1
 0 60 l 1,9,-1
 20 60 l 1,10,-1
 20 50 l 1,11,-1
 40 50 l 1,12,-1
 40 60 l 1,13,-1
 60 60 l 1,14,-1
 60 50 l 1,15,-1
 50 50 l 1,16,-1
 50 40 l 1,17,-1
 40 40 l 1,18,-1
 40 30 l 1,19,-1
 50 30 l 1,20,-1
 50 20 l 1,21,-1
 60 20 l 1,22,-1
 60 10 l 1,23,-1
 40 10 l 1,24,-1
 40 20 l 1,25,-1
 20 20 l 1,26,-1
 20 10 l 1,27,-1
 0 10 l 1,0,-1
EndSplineSet
EndChar

StartChar: Oslash
Encoding: 216 216 151
Width: 70
VWidth: 140
Flags: W
LayerCount: 2
Fore
SplineSet
0 10 m 1,0,-1
 0 70 l 1,1,-1
 10 70 l 1,2,-1
 10 80 l 1,3,-1
 40 80 l 1,4,-1
 40 90 l 1,5,-1
 50 90 l 1,6,-1
 50 70 l 1,7,-1
 60 70 l 1,8,-1
 60 10 l 1,9,-1
 50 10 l 1,10,-1
 50 0 l 1,11,-1
 20 0 l 1,12,-1
 20 -10 l 1,13,-1
 10 -10 l 1,14,-1
 10 10 l 1,15,-1
 0 10 l 1,0,-1
20 20 m 1,16,-1
 20 10 l 1,17,-1
 40 10 l 1,18,-1
 40 40 l 1,19,-1
 30 40 l 1,20,-1
 30 60 l 1,21,-1
 40 60 l 1,22,-1
 40 70 l 1,23,-1
 20 70 l 1,24,-1
 20 40 l 1,25,-1
 30 40 l 1,26,-1
 30 20 l 1,27,-1
 20 20 l 1,16,-1
EndSplineSet
EndChar

StartChar: Ugrave
Encoding: 217 217 152
Width: 70
VWidth: 140
Flags: W
LayerCount: 2
Fore
SplineSet
0 10 m 1,0,-1
 0 70 l 1,1,-1
 20 70 l 1,2,-1
 20 10 l 1,3,-1
 40 10 l 1,4,-1
 40 70 l 1,5,-1
 60 70 l 1,6,-1
 60 10 l 1,7,-1
 50 10 l 1,8,-1
 50 0 l 1,9,-1
 10 0 l 1,10,-1
 10 10 l 1,11,-1
 0 10 l 1,0,-1
10 90 m 1,12,-1
 10 100 l 1,13,-1
 30 100 l 1,14,-1
 30 90 l 1,15,-1
 40 90 l 1,16,-1
 40 80 l 1,17,-1
 20 80 l 1,18,-1
 20 90 l 1,19,-1
 10 90 l 1,12,-1
EndSplineSet
EndChar

StartChar: Uacute
Encoding: 218 218 153
Width: 70
VWidth: 140
Flags: W
LayerCount: 2
Fore
SplineSet
0 10 m 1,0,-1
 0 70 l 1,1,-1
 20 70 l 1,2,-1
 20 10 l 1,3,-1
 40 10 l 1,4,-1
 40 70 l 1,5,-1
 60 70 l 1,6,-1
 60 10 l 1,7,-1
 50 10 l 1,8,-1
 50 0 l 1,9,-1
 10 0 l 1,10,-1
 10 10 l 1,11,-1
 0 10 l 1,0,-1
20 80 m 1,12,-1
 20 90 l 1,13,-1
 30 90 l 1,14,-1
 30 100 l 1,15,-1
 50 100 l 1,16,-1
 50 90 l 1,17,-1
 40 90 l 1,18,-1
 40 80 l 1,19,-1
 20 80 l 1,12,-1
EndSplineSet
EndChar

StartChar: Ucircumflex
Encoding: 219 219 154
Width: 70
VWidth: 140
Flags: W
LayerCount: 2
Fore
SplineSet
10 80 m 1,0,-1
 10 90 l 1,1,-1
 20 90 l 1,2,-1
 20 100 l 1,3,-1
 40 100 l 1,4,-1
 40 90 l 1,5,-1
 50 90 l 1,6,-1
 50 80 l 1,7,-1
 40 80 l 1,8,-1
 40 90 l 1,9,-1
 30 90 l 1,10,-1
 30 80 l 1,11,-1
 10 80 l 1,0,-1
0 10 m 1,12,-1
 0 70 l 1,13,-1
 20 70 l 1,14,-1
 20 10 l 1,15,-1
 40 10 l 1,16,-1
 40 70 l 1,17,-1
 60 70 l 1,18,-1
 60 10 l 1,19,-1
 50 10 l 1,20,-1
 50 0 l 1,21,-1
 10 0 l 1,22,-1
 10 10 l 1,23,-1
 0 10 l 1,12,-1
EndSplineSet
EndChar

StartChar: Udieresis
Encoding: 220 220 155
Width: 70
VWidth: 140
Flags: W
LayerCount: 2
Fore
SplineSet
0 90 m 1,0,-1
 20 90 l 1,1,-1
 20 80 l 1,2,-1
 0 80 l 1,3,-1
 0 90 l 1,0,-1
40 90 m 1,4,-1
 60 90 l 1,5,-1
 60 80 l 1,6,-1
 40 80 l 1,7,-1
 40 90 l 1,4,-1
0 10 m 1,8,-1
 0 70 l 1,9,-1
 20 70 l 1,10,-1
 20 10 l 1,11,-1
 40 10 l 1,12,-1
 40 70 l 1,13,-1
 60 70 l 1,14,-1
 60 10 l 1,15,-1
 50 10 l 1,16,-1
 50 0 l 1,17,-1
 10 0 l 1,18,-1
 10 10 l 1,19,-1
 0 10 l 1,8,-1
EndSplineSet
EndChar

StartChar: Yacute
Encoding: 221 221 156
Width: 70
VWidth: 140
Flags: W
LayerCount: 2
Fore
SplineSet
0 40 m 1,0,-1
 0 70 l 1,1,-1
 20 70 l 1,2,-1
 20 40 l 1,3,-1
 40 40 l 1,4,-1
 40 70 l 1,5,-1
 60 70 l 1,6,-1
 60 40 l 1,7,-1
 50 40 l 1,8,-1
 50 30 l 1,9,-1
 40 30 l 1,10,-1
 40 0 l 1,11,-1
 20 0 l 1,12,-1
 20 30 l 1,13,-1
 10 30 l 1,14,-1
 10 40 l 1,15,-1
 0 40 l 1,0,-1
20 80 m 1,16,-1
 20 90 l 1,17,-1
 30 90 l 1,18,-1
 30 100 l 1,19,-1
 50 100 l 5,20,-1
 50 90 l 1,21,-1
 40 90 l 1,22,-1
 40 80 l 1,23,-1
 20 80 l 1,16,-1
EndSplineSet
EndChar

StartChar: Thorn
Encoding: 222 222 157
Width: 70
VWidth: 140
Flags: W
LayerCount: 2
Fore
SplineSet
0 0 m 1,0,-1
 0 80 l 1,1,-1
 20 80 l 1,2,-1
 20 70 l 1,3,-1
 50 70 l 1,4,-1
 50 60 l 1,5,-1
 60 60 l 1,6,-1
 60 20 l 1,7,-1
 50 20 l 1,8,-1
 50 10 l 1,9,-1
 20 10 l 1,10,-1
 20 0 l 1,11,-1
 0 0 l 1,0,-1
20 20 m 1,12,-1
 40 20 l 1,13,-1
 40 60 l 1,14,-1
 20 60 l 1,15,-1
 20 20 l 1,12,-1
EndSplineSet
EndChar

StartChar: germandbls
Encoding: 223 223 158
Width: 70
VWidth: 140
Flags: W
LayerCount: 2
Fore
SplineSet
0 0 m 1,0,-1
 0 70 l 1,1,-1
 10 70 l 1,2,-1
 10 80 l 1,3,-1
 50 80 l 1,4,-1
 50 70 l 1,5,-1
 60 70 l 1,6,-1
 60 50 l 1,7,-1
 50 50 l 1,8,-1
 50 40 l 1,9,-1
 60 40 l 1,10,-1
 60 10 l 1,11,-1
 50 10 l 1,12,-1
 50 0 l 1,13,-1
 30 0 l 1,14,-1
 30 10 l 1,15,-1
 40 10 l 1,16,-1
 40 40 l 1,17,-1
 30 40 l 1,18,-1
 30 50 l 1,19,-1
 40 50 l 1,20,-1
 40 70 l 1,21,-1
 20 70 l 1,22,-1
 20 0 l 1,23,-1
 0 0 l 1,0,-1
EndSplineSet
EndChar

StartChar: agrave
Encoding: 224 224 159
Width: 70
VWidth: 140
Flags: W
LayerCount: 2
Fore
SplineSet
0 10 m 1,0,-1
 0 30 l 1,1,-1
 10 30 l 1,2,-1
 10 40 l 1,3,-1
 40 40 l 1,4,-1
 40 50 l 1,5,-1
 10 50 l 1,6,-1
 10 60 l 1,7,-1
 50 60 l 1,8,-1
 50 50 l 1,9,-1
 60 50 l 1,10,-1
 60 0 l 1,11,-1
 10 0 l 1,12,-1
 10 10 l 1,13,-1
 0 10 l 1,0,-1
20 10 m 1,14,-1
 40 10 l 1,15,-1
 40 30 l 1,16,-1
 20 30 l 1,17,-1
 20 10 l 1,14,-1
20 70 m 1,18,-1
 20 80 l 1,19,-1
 10 80 l 1,20,-1
 10 90 l 1,21,-1
 30 90 l 1,22,-1
 30 80 l 1,23,-1
 40 80 l 1,24,-1
 40 70 l 1,25,-1
 20 70 l 1,18,-1
EndSplineSet
EndChar

StartChar: aacute
Encoding: 225 225 160
Width: 70
VWidth: 140
Flags: W
LayerCount: 2
Fore
SplineSet
0 10 m 1,0,-1
 0 30 l 1,1,-1
 10 30 l 1,2,-1
 10 40 l 1,3,-1
 40 40 l 1,4,-1
 40 50 l 1,5,-1
 10 50 l 1,6,-1
 10 60 l 1,7,-1
 50 60 l 1,8,-1
 50 50 l 1,9,-1
 60 50 l 1,10,-1
 60 0 l 1,11,-1
 10 0 l 1,12,-1
 10 10 l 1,13,-1
 0 10 l 1,0,-1
20 10 m 1,14,-1
 40 10 l 1,15,-1
 40 30 l 1,16,-1
 20 30 l 1,17,-1
 20 10 l 1,14,-1
20 70 m 1,18,-1
 20 80 l 1,19,-1
 30 80 l 1,20,-1
 30 90 l 1,21,-1
 50 90 l 1,22,-1
 50 80 l 1,23,-1
 40 80 l 1,24,-1
 40 70 l 1,25,-1
 20 70 l 1,18,-1
EndSplineSet
EndChar

StartChar: acircumflex
Encoding: 226 226 161
Width: 70
VWidth: 140
Flags: W
LayerCount: 2
Fore
SplineSet
10 70 m 1,0,-1
 10 80 l 1,1,-1
 20 80 l 1,2,-1
 20 90 l 1,3,-1
 40 90 l 1,4,-1
 40 80 l 1,5,-1
 50 80 l 1,6,-1
 50 70 l 1,7,-1
 40 70 l 1,8,-1
 40 80 l 1,9,-1
 30 80 l 1,10,-1
 30 70 l 1,11,-1
 10 70 l 1,0,-1
0 10 m 1,12,-1
 0 30 l 1,13,-1
 10 30 l 1,14,-1
 10 40 l 1,15,-1
 40 40 l 1,16,-1
 40 50 l 1,17,-1
 10 50 l 1,18,-1
 10 60 l 1,19,-1
 50 60 l 1,20,-1
 50 50 l 1,21,-1
 60 50 l 1,22,-1
 60 0 l 1,23,-1
 10 0 l 1,24,-1
 10 10 l 1,25,-1
 0 10 l 1,12,-1
20 10 m 1,26,-1
 40 10 l 1,27,-1
 40 30 l 1,28,-1
 20 30 l 1,29,-1
 20 10 l 1,26,-1
EndSplineSet
EndChar

StartChar: atilde
Encoding: 227 227 162
Width: 70
VWidth: 140
Flags: W
LayerCount: 2
Fore
SplineSet
30 80 m 1,0,-1
 20 80 l 1,1,-1
 20 70 l 1,2,-1
 0 70 l 1,3,-1
 0 80 l 1,4,-1
 10 80 l 1,5,-1
 10 90 l 1,6,-1
 40 90 l 1,7,-1
 40 80 l 1,8,-1
 50 80 l 1,9,-1
 50 70 l 1,10,-1
 30 70 l 1,11,-1
 30 80 l 1,0,-1
60 90 m 1,12,-1
 60 80 l 1,13,-1
 50 80 l 1,14,-1
 50 90 l 1,15,-1
 60 90 l 1,12,-1
0 10 m 1,16,-1
 0 30 l 1,17,-1
 10 30 l 1,18,-1
 10 40 l 1,19,-1
 40 40 l 1,20,-1
 40 50 l 1,21,-1
 10 50 l 1,22,-1
 10 60 l 1,23,-1
 50 60 l 1,24,-1
 50 50 l 1,25,-1
 60 50 l 1,26,-1
 60 0 l 1,27,-1
 10 0 l 1,28,-1
 10 10 l 1,29,-1
 0 10 l 1,16,-1
20 10 m 1,30,-1
 40 10 l 1,31,-1
 40 30 l 1,32,-1
 20 30 l 1,33,-1
 20 10 l 1,30,-1
EndSplineSet
EndChar

StartChar: adieresis
Encoding: 228 228 163
Width: 70
VWidth: 140
Flags: W
LayerCount: 2
Fore
SplineSet
0 10 m 1,0,-1
 0 30 l 1,1,-1
 10 30 l 1,2,-1
 10 40 l 1,3,-1
 40 40 l 1,4,-1
 40 50 l 1,5,-1
 10 50 l 1,6,-1
 10 60 l 1,7,-1
 50 60 l 1,8,-1
 50 50 l 1,9,-1
 60 50 l 1,10,-1
 60 0 l 1,11,-1
 10 0 l 1,12,-1
 10 10 l 1,13,-1
 0 10 l 1,0,-1
20 10 m 1,14,-1
 40 10 l 1,15,-1
 40 30 l 1,16,-1
 20 30 l 1,17,-1
 20 10 l 1,14,-1
40 70 m 5,18,-1
 40 80 l 5,19,-1
 60 80 l 5,20,-1
 60 70 l 5,21,-1
 40 70 l 5,18,-1
0 70 m 5,22,-1
 0 80 l 5,23,-1
 20 80 l 5,24,-1
 20 70 l 5,25,-1
 0 70 l 5,22,-1
EndSplineSet
EndChar

StartChar: aring
Encoding: 229 229 164
Width: 70
VWidth: 140
Flags: W
LayerCount: 2
Fore
SplineSet
0 10 m 1,0,-1
 0 30 l 1,1,-1
 10 30 l 1,2,-1
 10 40 l 1,3,-1
 40 40 l 1,4,-1
 40 50 l 1,5,-1
 10 50 l 1,6,-1
 10 60 l 1,7,-1
 50 60 l 1,8,-1
 50 50 l 1,9,-1
 60 50 l 1,10,-1
 60 0 l 1,11,-1
 10 0 l 1,12,-1
 10 10 l 1,13,-1
 0 10 l 1,0,-1
20 10 m 1,14,-1
 40 10 l 1,15,-1
 40 30 l 1,16,-1
 20 30 l 1,17,-1
 20 10 l 1,14,-1
20 70 m 1,18,-1
 20 80 l 1,19,-1
 10 80 l 1,20,-1
 10 90 l 1,21,-1
 20 90 l 1,22,-1
 20 100 l 1,23,-1
 50 100 l 1,24,-1
 50 90 l 1,25,-1
 60 90 l 1,26,-1
 60 80 l 1,27,-1
 50 80 l 1,28,-1
 50 70 l 1,29,-1
 20 70 l 1,18,-1
40 90 m 1,30,-1
 30 90 l 1,31,-1
 30 80 l 1,32,-1
 40 80 l 1,33,-1
 40 90 l 1,30,-1
EndSplineSet
EndChar

StartChar: ae
Encoding: 230 230 165
Width: 70
VWidth: 140
Flags: W
LayerCount: 2
Fore
SplineSet
0 10 m 1,0,-1
 0 30 l 1,1,-1
 10 30 l 1,2,-1
 10 10 l 1,3,-1
 0 10 l 1,0,-1
20 10 m 1,4,-1
 20 0 l 1,5,-1
 10 0 l 1,6,-1
 10 10 l 1,7,-1
 20 10 l 1,4,-1
20 50 m 1,8,-1
 10 50 l 1,9,-1
 10 60 l 1,10,-1
 30 60 l 1,11,-1
 30 50 l 1,12,-1
 40 50 l 1,13,-1
 40 40 l 1,14,-1
 50 40 l 1,15,-1
 50 50 l 1,16,-1
 60 50 l 1,17,-1
 60 30 l 1,18,-1
 40 30 l 1,19,-1
 40 10 l 1,20,-1
 60 10 l 1,21,-1
 60 0 l 1,22,-1
 30 0 l 1,23,-1
 30 10 l 1,24,-1
 20 10 l 1,25,-1
 20 30 l 1,26,-1
 10 30 l 1,27,-1
 10 40 l 1,28,-1
 20 40 l 1,29,-1
 20 50 l 1,8,-1
40 50 m 1,30,-1
 40 60 l 1,31,-1
 50 60 l 1,32,-1
 50 50 l 1,33,-1
 40 50 l 1,30,-1
EndSplineSet
EndChar

StartChar: ccedilla
Encoding: 231 231 166
Width: 70
VWidth: 140
Flags: W
LayerCount: 2
Fore
SplineSet
0 10 m 1,0,-1
 0 50 l 1,1,-1
 10 50 l 1,2,-1
 10 60 l 1,3,-1
 60 60 l 1,4,-1
 60 50 l 1,5,-1
 20 50 l 1,6,-1
 20 10 l 1,7,-1
 60 10 l 1,8,-1
 60 0 l 1,9,-1
 50 0 l 1,10,-1
 50 -10 l 1,11,-1
 40 -10 l 1,12,-1
 40 -20 l 1,13,-1
 10 -20 l 1,14,-1
 10 -10 l 1,15,-1
 30 -10 l 1,16,-1
 30 0 l 1,17,-1
 10 0 l 1,18,-1
 10 10 l 1,19,-1
 0 10 l 1,0,-1
EndSplineSet
EndChar

StartChar: egrave
Encoding: 232 232 167
Width: 70
VWidth: 140
Flags: W
LayerCount: 2
Fore
SplineSet
0 10 m 1,0,-1
 0 50 l 1,1,-1
 10 50 l 1,2,-1
 10 60 l 1,3,-1
 50 60 l 1,4,-1
 50 50 l 1,5,-1
 60 50 l 1,6,-1
 60 30 l 1,7,-1
 20 30 l 1,8,-1
 20 10 l 1,9,-1
 60 10 l 1,10,-1
 60 0 l 1,11,-1
 10 0 l 1,12,-1
 10 10 l 1,13,-1
 0 10 l 1,0,-1
20 50 m 1,14,-1
 20 40 l 1,15,-1
 40 40 l 1,16,-1
 40 50 l 1,17,-1
 20 50 l 1,14,-1
20 70 m 1,18,-1
 20 80 l 1,19,-1
 10 80 l 1,20,-1
 10 90 l 1,21,-1
 30 90 l 1,22,-1
 30 80 l 1,23,-1
 40 80 l 1,24,-1
 40 70 l 1,25,-1
 20 70 l 1,18,-1
EndSplineSet
EndChar

StartChar: eacute
Encoding: 233 233 168
Width: 70
VWidth: 140
Flags: W
LayerCount: 2
Fore
SplineSet
0 10 m 1,0,-1
 0 50 l 1,1,-1
 10 50 l 1,2,-1
 10 60 l 1,3,-1
 50 60 l 1,4,-1
 50 50 l 1,5,-1
 60 50 l 1,6,-1
 60 30 l 1,7,-1
 20 30 l 1,8,-1
 20 10 l 1,9,-1
 60 10 l 1,10,-1
 60 0 l 1,11,-1
 10 0 l 1,12,-1
 10 10 l 1,13,-1
 0 10 l 1,0,-1
20 50 m 1,14,-1
 20 40 l 1,15,-1
 40 40 l 1,16,-1
 40 50 l 1,17,-1
 20 50 l 1,14,-1
20 70 m 1,18,-1
 20 80 l 1,19,-1
 30 80 l 1,20,-1
 30 90 l 1,21,-1
 50 90 l 1,22,-1
 50 80 l 1,23,-1
 40 80 l 1,24,-1
 40 70 l 1,25,-1
 20 70 l 1,18,-1
EndSplineSet
EndChar

StartChar: ecircumflex
Encoding: 234 234 169
Width: 70
VWidth: 140
Flags: W
LayerCount: 2
Fore
SplineSet
10 70 m 1,0,-1
 10 80 l 1,1,-1
 20 80 l 1,2,-1
 20 90 l 1,3,-1
 40 90 l 1,4,-1
 40 80 l 1,5,-1
 50 80 l 1,6,-1
 50 70 l 1,7,-1
 40 70 l 1,8,-1
 40 80 l 1,9,-1
 30 80 l 1,10,-1
 30 70 l 1,11,-1
 10 70 l 1,0,-1
0 10 m 1,12,-1
 0 50 l 1,13,-1
 10 50 l 1,14,-1
 10 60 l 1,15,-1
 50 60 l 1,16,-1
 50 50 l 1,17,-1
 60 50 l 1,18,-1
 60 30 l 1,19,-1
 20 30 l 1,20,-1
 20 10 l 1,21,-1
 60 10 l 1,22,-1
 60 0 l 1,23,-1
 10 0 l 1,24,-1
 10 10 l 1,25,-1
 0 10 l 1,12,-1
20 50 m 1,26,-1
 20 40 l 1,27,-1
 40 40 l 1,28,-1
 40 50 l 1,29,-1
 20 50 l 1,26,-1
EndSplineSet
EndChar

StartChar: edieresis
Encoding: 235 235 170
Width: 70
VWidth: 140
Flags: W
LayerCount: 2
Fore
SplineSet
40 70 m 1,0,-1
 40 80 l 1,1,-1
 60 80 l 1,2,-1
 60 70 l 1,3,-1
 40 70 l 1,0,-1
0 70 m 1,4,-1
 0 80 l 1,5,-1
 20 80 l 1,6,-1
 20 70 l 1,7,-1
 0 70 l 1,4,-1
0 10 m 1,8,-1
 0 50 l 1,9,-1
 10 50 l 1,10,-1
 10 60 l 1,11,-1
 50 60 l 1,12,-1
 50 50 l 1,13,-1
 60 50 l 1,14,-1
 60 30 l 1,15,-1
 20 30 l 1,16,-1
 20 10 l 1,17,-1
 60 10 l 1,18,-1
 60 0 l 1,19,-1
 10 0 l 1,20,-1
 10 10 l 1,21,-1
 0 10 l 1,8,-1
20 50 m 1,22,-1
 20 40 l 1,23,-1
 40 40 l 1,24,-1
 40 50 l 1,25,-1
 20 50 l 1,22,-1
EndSplineSet
EndChar

StartChar: igrave
Encoding: 236 236 171
Width: 70
VWidth: 140
Flags: W
LayerCount: 2
Fore
SplineSet
0 0 m 1,0,-1
 0 10 l 1,1,-1
 20 10 l 1,2,-1
 20 50 l 1,3,-1
 0 50 l 1,4,-1
 0 60 l 1,5,-1
 40 60 l 1,6,-1
 40 10 l 1,7,-1
 60 10 l 1,8,-1
 60 0 l 1,9,-1
 0 0 l 1,0,-1
10 80 m 1,10,-1
 10 90 l 1,11,-1
 30 90 l 1,12,-1
 30 80 l 1,13,-1
 40 80 l 1,14,-1
 40 70 l 1,15,-1
 20 70 l 1,16,-1
 20 80 l 1,17,-1
 10 80 l 1,10,-1
EndSplineSet
EndChar

StartChar: iacute
Encoding: 237 237 172
Width: 70
VWidth: 140
Flags: W
LayerCount: 2
Fore
SplineSet
0 0 m 1,0,-1
 0 10 l 1,1,-1
 20 10 l 1,2,-1
 20 50 l 1,3,-1
 0 50 l 1,4,-1
 0 60 l 1,5,-1
 40 60 l 1,6,-1
 40 10 l 1,7,-1
 60 10 l 1,8,-1
 60 0 l 1,9,-1
 0 0 l 1,0,-1
20 70 m 1,10,-1
 20 80 l 1,11,-1
 30 80 l 1,12,-1
 30 90 l 1,13,-1
 50 90 l 1,14,-1
 50 80 l 1,15,-1
 40 80 l 1,16,-1
 40 70 l 1,17,-1
 20 70 l 1,10,-1
EndSplineSet
EndChar

StartChar: icircumflex
Encoding: 238 238 173
Width: 70
VWidth: 140
Flags: W
LayerCount: 2
Fore
SplineSet
10 70 m 1,0,-1
 10 80 l 1,1,-1
 20 80 l 1,2,-1
 20 90 l 1,3,-1
 40 90 l 1,4,-1
 40 80 l 1,5,-1
 50 80 l 1,6,-1
 50 70 l 1,7,-1
 40 70 l 1,8,-1
 40 80 l 1,9,-1
 30 80 l 1,10,-1
 30 70 l 1,11,-1
 10 70 l 1,0,-1
0 0 m 1,12,-1
 0 10 l 1,13,-1
 20 10 l 1,14,-1
 20 50 l 1,15,-1
 0 50 l 1,16,-1
 0 60 l 1,17,-1
 40 60 l 1,18,-1
 40 10 l 1,19,-1
 60 10 l 1,20,-1
 60 0 l 1,21,-1
 0 0 l 1,12,-1
EndSplineSet
EndChar

StartChar: idieresis
Encoding: 239 239 174
Width: 70
VWidth: 140
Flags: W
LayerCount: 2
Fore
SplineSet
40 70 m 1,0,-1
 40 80 l 1,1,-1
 60 80 l 1,2,-1
 60 70 l 1,3,-1
 40 70 l 1,0,-1
0 70 m 1,4,-1
 0 80 l 1,5,-1
 20 80 l 1,6,-1
 20 70 l 1,7,-1
 0 70 l 1,4,-1
0 0 m 1,8,-1
 0 10 l 1,9,-1
 20 10 l 1,10,-1
 20 50 l 1,11,-1
 0 50 l 1,12,-1
 0 60 l 1,13,-1
 40 60 l 1,14,-1
 40 10 l 1,15,-1
 60 10 l 1,16,-1
 60 0 l 1,17,-1
 0 0 l 1,8,-1
EndSplineSet
EndChar

StartChar: eth
Encoding: 240 240 175
Width: 70
VWidth: 140
Flags: W
LayerCount: 2
Fore
SplineSet
0 10 m 1,0,-1
 0 50 l 1,1,-1
 10 50 l 1,2,-1
 10 60 l 1,3,-1
 40 60 l 1,4,-1
 40 70 l 1,5,-1
 10 70 l 1,6,-1
 10 80 l 1,7,-1
 30 80 l 1,8,-1
 30 90 l 1,9,-1
 20 90 l 1,10,-1
 20 100 l 1,11,-1
 40 100 l 1,12,-1
 40 90 l 1,13,-1
 50 90 l 1,14,-1
 50 70 l 1,15,-1
 60 70 l 1,16,-1
 60 10 l 1,17,-1
 50 10 l 1,18,-1
 50 0 l 1,19,-1
 10 0 l 1,20,-1
 10 10 l 1,21,-1
 0 10 l 1,0,-1
20 10 m 1,22,-1
 40 10 l 1,23,-1
 40 50 l 1,24,-1
 20 50 l 1,25,-1
 20 10 l 1,22,-1
60 100 m 1,26,-1
 60 90 l 1,27,-1
 50 90 l 1,28,-1
 50 100 l 1,29,-1
 60 100 l 1,26,-1
EndSplineSet
EndChar

StartChar: ntilde
Encoding: 241 241 176
Width: 70
VWidth: 140
Flags: W
LayerCount: 2
Fore
SplineSet
30 80 m 1,0,-1
 20 80 l 1,1,-1
 20 70 l 1,2,-1
 0 70 l 1,3,-1
 0 80 l 1,4,-1
 10 80 l 1,5,-1
 10 90 l 1,6,-1
 40 90 l 1,7,-1
 40 80 l 1,8,-1
 50 80 l 1,9,-1
 50 70 l 1,10,-1
 30 70 l 1,11,-1
 30 80 l 1,0,-1
60 90 m 1,12,-1
 60 80 l 1,13,-1
 50 80 l 1,14,-1
 50 90 l 1,15,-1
 60 90 l 1,12,-1
0 0 m 1,16,-1
 0 60 l 1,17,-1
 50 60 l 1,18,-1
 50 50 l 1,19,-1
 60 50 l 1,20,-1
 60 0 l 1,21,-1
 40 0 l 1,22,-1
 40 50 l 1,23,-1
 20 50 l 1,24,-1
 20 0 l 1,25,-1
 0 0 l 1,16,-1
EndSplineSet
EndChar

StartChar: ograve
Encoding: 242 242 177
Width: 70
VWidth: 140
Flags: W
LayerCount: 2
Fore
SplineSet
0 10 m 1,0,-1
 0 50 l 1,1,-1
 10 50 l 1,2,-1
 10 60 l 1,3,-1
 50 60 l 1,4,-1
 50 50 l 1,5,-1
 60 50 l 1,6,-1
 60 10 l 1,7,-1
 50 10 l 1,8,-1
 50 0 l 1,9,-1
 10 0 l 1,10,-1
 10 10 l 1,11,-1
 0 10 l 1,0,-1
10 80 m 1,12,-1
 10 90 l 1,13,-1
 30 90 l 1,14,-1
 30 80 l 1,15,-1
 40 80 l 1,16,-1
 40 70 l 1,17,-1
 20 70 l 1,18,-1
 20 80 l 1,19,-1
 10 80 l 1,12,-1
20 10 m 1,20,-1
 40 10 l 1,21,-1
 40 50 l 1,22,-1
 20 50 l 1,23,-1
 20 10 l 1,20,-1
EndSplineSet
EndChar

StartChar: oacute
Encoding: 243 243 178
Width: 70
VWidth: 140
Flags: W
LayerCount: 2
Fore
SplineSet
0 10 m 1,0,-1
 0 50 l 1,1,-1
 10 50 l 1,2,-1
 10 60 l 1,3,-1
 50 60 l 1,4,-1
 50 50 l 1,5,-1
 60 50 l 1,6,-1
 60 10 l 1,7,-1
 50 10 l 1,8,-1
 50 0 l 1,9,-1
 10 0 l 1,10,-1
 10 10 l 1,11,-1
 0 10 l 1,0,-1
20 10 m 1,12,-1
 40 10 l 1,13,-1
 40 50 l 1,14,-1
 20 50 l 1,15,-1
 20 10 l 1,12,-1
20 70 m 1,16,-1
 20 80 l 1,17,-1
 30 80 l 1,18,-1
 30 90 l 1,19,-1
 50 90 l 1,20,-1
 50 80 l 1,21,-1
 40 80 l 1,22,-1
 40 70 l 1,23,-1
 20 70 l 1,16,-1
EndSplineSet
EndChar

StartChar: ocircumflex
Encoding: 244 244 179
Width: 70
VWidth: 140
Flags: W
LayerCount: 2
Fore
SplineSet
10 70 m 1,0,-1
 10 80 l 1,1,-1
 20 80 l 1,2,-1
 20 90 l 1,3,-1
 40 90 l 1,4,-1
 40 80 l 1,5,-1
 50 80 l 1,6,-1
 50 70 l 1,7,-1
 40 70 l 1,8,-1
 40 80 l 1,9,-1
 30 80 l 1,10,-1
 30 70 l 1,11,-1
 10 70 l 1,0,-1
0 10 m 1,12,-1
 0 50 l 1,13,-1
 10 50 l 1,14,-1
 10 60 l 1,15,-1
 50 60 l 1,16,-1
 50 50 l 1,17,-1
 60 50 l 1,18,-1
 60 10 l 1,19,-1
 50 10 l 1,20,-1
 50 0 l 1,21,-1
 10 0 l 1,22,-1
 10 10 l 1,23,-1
 0 10 l 1,12,-1
20 10 m 1,24,-1
 40 10 l 1,25,-1
 40 50 l 1,26,-1
 20 50 l 1,27,-1
 20 10 l 1,24,-1
EndSplineSet
EndChar

StartChar: otilde
Encoding: 245 245 180
Width: 70
VWidth: 140
Flags: W
LayerCount: 2
Fore
SplineSet
30 80 m 1,0,-1
 20 80 l 1,1,-1
 20 70 l 1,2,-1
 0 70 l 1,3,-1
 0 80 l 1,4,-1
 10 80 l 1,5,-1
 10 90 l 1,6,-1
 40 90 l 1,7,-1
 40 80 l 1,8,-1
 50 80 l 1,9,-1
 50 70 l 1,10,-1
 30 70 l 1,11,-1
 30 80 l 1,0,-1
60 90 m 1,12,-1
 60 80 l 1,13,-1
 50 80 l 1,14,-1
 50 90 l 1,15,-1
 60 90 l 1,12,-1
0 10 m 1,16,-1
 0 50 l 1,17,-1
 10 50 l 1,18,-1
 10 60 l 1,19,-1
 50 60 l 1,20,-1
 50 50 l 1,21,-1
 60 50 l 1,22,-1
 60 10 l 1,23,-1
 50 10 l 1,24,-1
 50 0 l 1,25,-1
 10 0 l 1,26,-1
 10 10 l 1,27,-1
 0 10 l 1,16,-1
20 10 m 1,28,-1
 40 10 l 1,29,-1
 40 50 l 1,30,-1
 20 50 l 1,31,-1
 20 10 l 1,28,-1
EndSplineSet
EndChar

StartChar: odieresis
Encoding: 246 246 181
Width: 70
VWidth: 140
Flags: W
LayerCount: 2
Fore
SplineSet
40 70 m 1,0,-1
 40 80 l 1,1,-1
 60 80 l 1,2,-1
 60 70 l 1,3,-1
 40 70 l 1,0,-1
0 70 m 1,4,-1
 0 80 l 1,5,-1
 20 80 l 1,6,-1
 20 70 l 1,7,-1
 0 70 l 1,4,-1
0 10 m 1,8,-1
 0 50 l 1,9,-1
 10 50 l 1,10,-1
 10 60 l 1,11,-1
 50 60 l 1,12,-1
 50 50 l 1,13,-1
 60 50 l 1,14,-1
 60 10 l 1,15,-1
 50 10 l 1,16,-1
 50 0 l 1,17,-1
 10 0 l 1,18,-1
 10 10 l 1,19,-1
 0 10 l 1,8,-1
20 10 m 1,20,-1
 40 10 l 1,21,-1
 40 50 l 1,22,-1
 20 50 l 1,23,-1
 20 10 l 1,20,-1
EndSplineSet
EndChar

StartChar: divide
Encoding: 247 247 182
Width: 70
VWidth: 140
Flags: W
LayerCount: 2
Fore
SplineSet
40 20 m 1,0,-1
 40 0 l 1,1,-1
 20 0 l 1,2,-1
 20 20 l 1,3,-1
 40 20 l 1,0,-1
0 30 m 1,4,-1
 0 40 l 1,5,-1
 60 40 l 1,6,-1
 60 30 l 1,7,-1
 0 30 l 1,4,-1
40 50 m 1,8,-1
 20 50 l 1,9,-1
 20 70 l 1,10,-1
 40 70 l 1,11,-1
 40 50 l 1,8,-1
EndSplineSet
EndChar

StartChar: oslash
Encoding: 248 248 183
Width: 70
VWidth: 140
Flags: W
LayerCount: 2
Fore
SplineSet
0 10 m 1,0,-1
 0 50 l 1,1,-1
 10 50 l 1,2,-1
 10 60 l 1,3,-1
 40 60 l 1,4,-1
 40 70 l 1,5,-1
 50 70 l 1,6,-1
 50 50 l 1,7,-1
 60 50 l 1,8,-1
 60 10 l 1,9,-1
 50 10 l 1,10,-1
 50 0 l 1,11,-1
 20 0 l 1,12,-1
 20 -10 l 1,13,-1
 10 -10 l 1,14,-1
 10 10 l 1,15,-1
 0 10 l 1,0,-1
40 10 m 1,16,-1
 40 30 l 1,17,-1
 30 30 l 1,18,-1
 30 50 l 1,19,-1
 20 50 l 1,20,-1
 20 30 l 1,21,-1
 30 30 l 1,22,-1
 30 10 l 1,23,-1
 40 10 l 1,16,-1
EndSplineSet
EndChar

StartChar: ugrave
Encoding: 249 249 184
Width: 70
VWidth: 140
Flags: W
LayerCount: 2
Fore
SplineSet
0 10 m 1,0,-1
 0 60 l 1,1,-1
 20 60 l 1,2,-1
 20 10 l 1,3,-1
 40 10 l 1,4,-1
 40 60 l 1,5,-1
 60 60 l 1,6,-1
 60 0 l 1,7,-1
 10 0 l 1,8,-1
 10 10 l 1,9,-1
 0 10 l 1,0,-1
10 80 m 1,10,-1
 10 90 l 1,11,-1
 30 90 l 1,12,-1
 30 80 l 1,13,-1
 40 80 l 1,14,-1
 40 70 l 1,15,-1
 20 70 l 1,16,-1
 20 80 l 1,17,-1
 10 80 l 1,10,-1
EndSplineSet
EndChar

StartChar: uacute
Encoding: 250 250 185
Width: 70
VWidth: 140
Flags: W
LayerCount: 2
Fore
SplineSet
0 10 m 1,0,-1
 0 60 l 1,1,-1
 20 60 l 1,2,-1
 20 10 l 1,3,-1
 40 10 l 1,4,-1
 40 60 l 1,5,-1
 60 60 l 1,6,-1
 60 0 l 1,7,-1
 10 0 l 1,8,-1
 10 10 l 1,9,-1
 0 10 l 1,0,-1
20 70 m 1,10,-1
 20 80 l 1,11,-1
 30 80 l 1,12,-1
 30 90 l 1,13,-1
 50 90 l 1,14,-1
 50 80 l 1,15,-1
 40 80 l 1,16,-1
 40 70 l 1,17,-1
 20 70 l 1,10,-1
EndSplineSet
EndChar

StartChar: ucircumflex
Encoding: 251 251 186
Width: 70
VWidth: 140
Flags: W
LayerCount: 2
Fore
SplineSet
10 70 m 1,0,-1
 10 80 l 1,1,-1
 20 80 l 1,2,-1
 20 90 l 1,3,-1
 40 90 l 1,4,-1
 40 80 l 1,5,-1
 50 80 l 1,6,-1
 50 70 l 1,7,-1
 40 70 l 1,8,-1
 40 80 l 1,9,-1
 30 80 l 1,10,-1
 30 70 l 1,11,-1
 10 70 l 1,0,-1
0 10 m 1,12,-1
 0 60 l 1,13,-1
 20 60 l 1,14,-1
 20 10 l 1,15,-1
 40 10 l 1,16,-1
 40 60 l 1,17,-1
 60 60 l 1,18,-1
 60 0 l 1,19,-1
 10 0 l 1,20,-1
 10 10 l 1,21,-1
 0 10 l 1,12,-1
EndSplineSet
EndChar

StartChar: udieresis
Encoding: 252 252 187
Width: 70
VWidth: 140
Flags: W
LayerCount: 2
Fore
SplineSet
40 70 m 5,0,-1
 40 80 l 5,1,-1
 60 80 l 5,2,-1
 60 70 l 5,3,-1
 40 70 l 5,0,-1
0 70 m 5,4,-1
 0 80 l 5,5,-1
 20 80 l 5,6,-1
 20 70 l 5,7,-1
 0 70 l 5,4,-1
0 10 m 1,8,-1
 0 60 l 1,9,-1
 20 60 l 1,10,-1
 20 10 l 1,11,-1
 40 10 l 1,12,-1
 40 60 l 1,13,-1
 60 60 l 1,14,-1
 60 0 l 1,15,-1
 10 0 l 1,16,-1
 10 10 l 1,17,-1
 0 10 l 1,8,-1
EndSplineSet
EndChar

StartChar: yacute
Encoding: 253 253 188
Width: 70
VWidth: 140
Flags: W
LayerCount: 2
Fore
SplineSet
0 10 m 1,0,-1
 0 60 l 1,1,-1
 20 60 l 1,2,-1
 20 10 l 1,3,-1
 40 10 l 1,4,-1
 40 60 l 1,5,-1
 60 60 l 1,6,-1
 60 -10 l 1,7,-1
 50 -10 l 1,8,-1
 50 -20 l 1,9,-1
 10 -20 l 1,10,-1
 10 -10 l 1,11,-1
 40 -10 l 1,12,-1
 40 0 l 1,13,-1
 10 0 l 1,14,-1
 10 10 l 1,15,-1
 0 10 l 1,0,-1
20 70 m 1,16,-1
 20 80 l 1,17,-1
 30 80 l 1,18,-1
 30 90 l 1,19,-1
 50 90 l 1,20,-1
 50 80 l 1,21,-1
 40 80 l 1,22,-1
 40 70 l 1,23,-1
 20 70 l 1,16,-1
EndSplineSet
EndChar

StartChar: thorn
Encoding: 254 254 189
Width: 70
VWidth: 140
Flags: W
LayerCount: 2
Fore
SplineSet
0 -20 m 1,0,-1
 0 80 l 1,1,-1
 20 80 l 1,2,-1
 20 60 l 1,3,-1
 50 60 l 1,4,-1
 50 50 l 1,5,-1
 60 50 l 1,6,-1
 60 10 l 1,7,-1
 50 10 l 1,8,-1
 50 0 l 1,9,-1
 20 0 l 1,10,-1
 20 -20 l 1,11,-1
 0 -20 l 1,0,-1
20 10 m 1,12,-1
 40 10 l 1,13,-1
 40 50 l 1,14,-1
 20 50 l 1,15,-1
 20 10 l 1,12,-1
EndSplineSet
EndChar

StartChar: ydieresis
Encoding: 255 255 190
Width: 70
VWidth: 140
Flags: W
LayerCount: 2
Fore
SplineSet
40 70 m 1,0,-1
 40 80 l 1,1,-1
 60 80 l 1,2,-1
 60 70 l 1,3,-1
 40 70 l 1,0,-1
0 70 m 1,4,-1
 0 80 l 1,5,-1
 20 80 l 1,6,-1
 20 70 l 1,7,-1
 0 70 l 1,4,-1
0 10 m 1,8,-1
 0 60 l 1,9,-1
 20 60 l 1,10,-1
 20 10 l 1,11,-1
 40 10 l 1,12,-1
 40 60 l 1,13,-1
 60 60 l 1,14,-1
 60 -10 l 1,15,-1
 50 -10 l 1,16,-1
 50 -20 l 1,17,-1
 10 -20 l 1,18,-1
 10 -10 l 1,19,-1
 40 -10 l 1,20,-1
 40 0 l 1,21,-1
 10 0 l 1,22,-1
 10 10 l 1,23,-1
 0 10 l 1,8,-1
EndSplineSet
EndChar
